<svg width="41" height="41" viewBox="0 0 41 41" fill="none" xmlns="http://www.w3.org/2000/svg">
<path opacity="0.5" d="M20.8358 0.0822183C31.8812 0.0370563 40.872 8.95482 40.9174 20.0002C40.9626 31.0458 32.045 40.0366 20.9995 40.0819C9.95386 40.1271 0.962983 31.2095 0.917782 20.1639C0.872806 9.11848 9.79031 0.127419 20.8358 0.0822183ZM20.8351 11.1282C20.283 11.1305 19.8372 11.5802 19.8392 12.1323L19.8678 19.1322L12.8679 19.1609C12.3157 19.1631 11.8699 19.6128 11.872 20.165C11.8742 20.7172 12.3238 21.1631 12.8761 21.1609L19.876 21.1322L19.9047 28.1322L19.91 28.2347C19.9633 28.7386 20.3911 29.1302 20.9087 29.1281C21.4263 29.1258 21.8509 28.7308 21.9002 28.2265L21.9046 28.124L21.876 21.124L28.8759 21.0954L28.9784 21.0901C29.4822 21.0365 29.8739 20.6089 29.8718 20.0913C29.8696 19.5738 29.4744 19.1493 28.9703 19.0999L28.8677 19.0954L21.8678 19.1241L21.8392 12.1241C21.8366 11.5722 21.387 11.1261 20.8351 11.1282Z" fill="#F8F8FA"/>
</svg>
