<svg width="179" height="54" viewBox="0 0 179 54" fill="none" xmlns="http://www.w3.org/2000/svg">
<path d="M139.992 34.745C139.992 30.9505 140.698 27.6192 142.108 24.7512C143.563 21.8833 145.525 19.6771 147.994 18.1328C150.463 16.5886 153.219 15.8164 156.261 15.8164C158.862 15.8164 161.133 16.3459 163.073 17.4048C165.057 18.4638 166.578 19.8536 167.636 21.5744V16.3459H178.945V53.2765H167.636V48.048C166.534 49.7687 164.991 51.1586 163.007 52.2175C161.067 53.2765 158.796 53.8059 156.195 53.8059C153.197 53.8059 150.463 53.0338 147.994 51.4895C145.525 49.9011 143.563 47.6729 142.108 44.8049C140.698 41.8928 139.992 38.5395 139.992 34.745ZM167.636 34.8112C167.636 31.9873 166.842 29.7591 165.255 28.1266C163.712 26.4941 161.816 25.6778 159.568 25.6778C157.319 25.6778 155.401 26.4941 153.814 28.1266C152.271 29.715 151.499 31.9211 151.499 34.745C151.499 37.5688 152.271 39.8191 153.814 41.4958C155.401 43.1283 157.319 43.9446 159.568 43.9446C161.816 43.9446 163.712 43.1283 165.255 41.4958C166.842 39.8632 167.636 37.635 167.636 34.8112Z" fill="white"/>
<path d="M125.254 22.5014C126.577 20.4718 128.23 18.8834 130.214 17.7362C132.198 16.5449 134.403 15.9492 136.827 15.9492V27.9285H133.719C130.897 27.9285 128.781 28.5462 127.37 29.7816C125.96 30.973 125.254 33.0908 125.254 36.1353V53.2769H113.945V16.3463H125.254V22.5014Z" fill="white"/>
<path d="M91.7252 43.9424H107.729V53.2743H79.0938V44.2733L94.4367 25.6757H79.226V16.3438H107.399V25.3448L91.7252 43.9424Z" fill="white"/>
<path d="M67.3237 12.5057C65.3397 12.5057 63.7084 11.9321 62.4299 10.785C61.1954 9.59365 60.5781 8.1376 60.5781 6.41682C60.5781 4.65192 61.1954 3.19587 62.4299 2.04868C63.7084 0.857374 65.3397 0.261719 67.3237 0.261719C69.2636 0.261719 70.8508 0.857374 72.0853 2.04868C73.3639 3.19587 74.0032 4.65192 74.0032 6.41682C74.0032 8.1376 73.3639 9.59365 72.0853 10.785C70.8508 11.9321 69.2636 12.5057 67.3237 12.5057ZM72.9451 16.3444V53.275H61.6363V16.3444H72.9451Z" fill="white"/>
<path d="M53.5057 6.81641V53.2775H42.1969V25.4141L31.814 53.2775H22.6876L12.2385 25.3479V53.2775H0.929688V6.81641H14.2886L27.3169 38.9818L40.2129 6.81641H53.5057Z" fill="white"/>
</svg>
