<svg width="152" height="59" viewBox="0 0 152 59" fill="none" xmlns="http://www.w3.org/2000/svg">
<path d="M43.1625 22.2699C43.0157 22.1668 42.7935 22.1081 42.6106 22.084C42.554 22.0766 42.554 22.1491 42.514 22.147C42.4359 22.1427 42.3849 22.0865 42.3063 22.0883C42.2802 22.0893 42.2682 22.1987 42.2419 22.1975C42.0996 22.191 41.9848 22.1175 41.8464 22.0897C41.1655 21.9537 40.5168 21.7935 39.8317 21.678C39.6044 21.6394 39.3182 21.6759 39.0946 21.5908C39.0685 21.5807 39.1019 21.4923 39.0982 21.4838C39.0385 21.3531 39.031 21.5429 38.974 21.5578C38.7494 21.617 38.517 21.5888 38.3212 21.5259C38.2382 21.499 38.3482 21.3272 38.2484 21.4186C38.2415 21.4248 38.2502 21.5256 38.2256 21.5331C38.1707 21.5497 38.0701 21.5196 38.0279 21.5226C37.9461 21.5289 37.9331 21.5265 37.8578 21.5197C37.7546 21.5112 37.6297 21.5489 37.5196 21.5176C37.4963 21.5106 37.5359 21.4121 37.4992 21.3919C37.4623 21.3716 37.361 21.3729 37.3258 21.3946C37.2904 21.4162 37.2997 21.4967 37.2925 21.5145C37.2343 21.665 37.1336 21.4456 37.1176 21.4395C36.847 21.3357 36.6107 21.4518 36.356 21.4518C36.1656 21.4515 35.9525 21.4164 35.7706 21.43C35.5492 21.4469 35.3703 21.5139 35.156 21.5231C35.1334 21.5242 35.1493 21.4032 35.1215 21.4043C34.8282 21.4167 34.5377 21.465 34.2616 21.5883C34.2339 21.6007 34.2868 21.6985 34.2603 21.7171C34.0969 21.8285 33.8657 22.0797 33.6762 21.653C33.5625 21.693 33.4196 21.7414 33.3351 21.8541C33.2806 21.9266 33.3704 22.0234 33.278 21.9942C33.2572 21.9878 33.2592 21.8851 33.2295 21.8829C33.1037 21.8739 32.9809 21.9368 32.8533 21.916C32.8272 21.9115 32.8116 21.8233 32.8009 21.8094C32.7128 21.6971 32.6705 21.9312 32.6549 21.9517C32.5297 22.1062 32.4078 22.0929 32.2641 22.1382C32.2312 22.1487 32.2363 22.0219 32.2032 22.028C32.0334 22.0605 31.8614 22.1256 31.7194 22.229C31.6879 22.2523 31.7527 22.3386 31.7393 22.3547C31.6799 22.4246 31.6005 22.2475 31.5419 22.3117C31.5295 22.3251 31.5667 22.4049 31.567 22.4149C31.5736 22.5724 31.4663 22.3833 31.4536 22.3828C31.2941 22.3706 31.2773 22.6145 31.1355 22.6339C31.1183 22.6361 31.115 22.5189 31.0688 22.5315C30.7561 22.6167 30.4553 22.7723 30.2007 22.9793C30.1619 23.011 30.2266 23.0736 30.2279 23.0843C30.2474 23.2506 30.1303 23.0674 30.1125 23.0663C29.972 23.0644 29.9434 23.2748 29.7577 23.078C29.6196 23.1709 29.4707 23.2459 29.3263 23.3152C29.0002 23.4716 28.6632 23.6103 28.4076 23.9112C28.4028 23.9165 28.4599 24.0063 28.4501 24.0165C28.335 24.139 28.2884 23.9787 28.1043 23.8452C28.0577 23.8119 28.0943 24.0649 28.0951 24.0844C28.1006 24.155 28.1954 24.2836 28.1932 24.2989C28.1729 24.4206 27.9501 23.9498 27.8635 23.9932C27.8612 23.9954 27.9156 24.0752 27.9127 24.0874C27.903 24.1258 27.8627 24.1035 27.8552 24.1443C27.8379 24.2388 27.9381 24.4716 27.7916 24.3814C27.7731 24.3695 27.6524 24.0993 27.5808 24.1522C27.554 24.1725 27.411 24.2421 27.3825 24.2792C27.3524 24.3171 27.4243 24.3865 27.4234 24.3917C27.3794 24.5583 27.4437 24.583 27.4826 24.7739C27.521 24.9645 27.322 24.5687 27.277 24.5371C27.2317 24.5057 27.2085 24.6375 27.2073 24.6797C27.2066 24.7216 27.2592 24.7613 27.253 24.7883C27.2124 24.9649 27.0973 24.624 27.0269 24.5833C26.8579 24.4885 26.9584 24.8104 26.9001 24.8831C26.8843 24.9028 26.8622 24.8288 26.8404 24.8338C26.7538 24.8552 26.7656 24.9683 26.6337 24.9408C26.6125 24.936 26.4389 24.8128 26.4752 24.9623C26.4807 24.9837 26.5425 25.041 26.5225 25.0761C26.4927 25.1286 26.4228 25.1971 26.36 25.2073C26.3134 25.2149 26.2771 25.0761 26.2565 25.1413C26.2475 25.1703 26.3288 25.2098 26.3084 25.2588C26.288 25.3077 26.1943 25.3701 26.1575 25.3936C26.1213 25.4165 26.08 25.3201 26.0732 25.3165C26.033 25.2968 25.9361 25.3069 25.9301 25.3116C25.6222 25.5247 25.4651 25.8734 25.155 26.0542C25.1305 26.0687 25.0765 25.9735 25.0721 25.9749C24.9685 26.0017 25.2089 26.1751 25.2194 26.2909C25.0873 26.1161 25.0829 26.1711 25.0154 26.1959C24.9826 26.2078 24.9423 26.1312 24.9344 26.1264C24.814 26.059 24.8957 26.2073 24.9107 26.2391C24.9665 26.3554 24.8453 26.2639 24.8819 26.3422C24.9182 26.42 25.0357 26.4823 24.9845 26.5229C24.9202 26.4745 24.8267 26.2859 24.767 26.2925C24.6983 26.2987 24.6353 26.3366 24.576 26.3908C24.4499 26.5064 24.3509 26.6934 24.2802 26.768C24.178 26.876 24.1314 26.8966 24.0841 26.9737C23.9979 27.1138 23.9431 26.9611 23.8244 26.9707C23.7053 26.9808 23.9834 27.2348 24.0248 27.305C24.0664 27.3751 24.0015 27.3218 24.0171 27.3665C24.0327 27.4112 24.0962 27.4289 24.0764 27.4675C24.0565 27.5061 23.8814 27.4678 23.8158 27.4133C23.6774 27.2975 23.5937 27.1233 23.5555 27.2424C23.5533 27.2494 23.6323 27.3111 23.621 27.3339C23.5298 27.5114 23.3866 27.6409 23.2907 27.8123C23.2776 27.836 23.3663 27.9038 23.3595 27.9186C23.2889 28.0722 23.2097 27.897 23.0117 27.7977C23.2047 27.991 23.2789 28.1473 23.1919 28.2252C23.1397 28.2722 23.0707 28.1745 22.9813 28.1412C22.9543 28.1311 22.9707 28.2254 22.9271 28.1892C22.7842 28.0711 22.6846 27.8861 22.6474 28.0272C22.6459 28.0336 22.7247 28.0977 22.7149 28.1144C22.6522 28.2223 22.5152 28.0879 22.4036 28.1554C22.3161 28.2083 22.2597 28.4143 22.1872 28.5045C22.3929 28.7316 22.266 28.7508 22.0924 28.6227C22.0429 28.6787 21.9755 28.7232 21.9416 28.7931C21.9299 28.817 22.0014 28.872 22.0055 28.8812C22.0708 29.0247 21.9093 28.8937 21.892 28.8985C21.7106 28.9571 21.7111 29.1673 21.4865 29.1671C21.4784 29.1671 21.3275 29.0167 21.3998 29.1613C21.405 29.1711 21.511 29.2051 21.4585 29.2637C21.4061 29.3222 21.3763 29.5054 21.23 29.5072C21.1948 29.5076 21.0282 29.427 21.0816 29.5621C21.089 29.5803 21.1365 29.6194 21.1523 29.6512C21.2025 29.7526 21.0417 29.6085 21.1391 29.7679C21.237 29.9268 21.2722 30.0819 21.1075 30.0649C21.1024 30.0647 20.9664 29.9589 20.9432 29.9849C20.9065 30.0263 20.8755 30.1055 20.8342 30.144C20.814 30.1628 20.7529 30.0745 20.7482 30.0765C20.5741 30.163 20.5476 30.3214 20.4371 30.4905C20.4177 30.5209 20.2411 30.4942 20.274 30.6241C20.3104 30.7659 20.7375 31.0716 20.5286 31.1099C20.447 31.1235 19.9035 30.738 20.0671 31.0641C19.9199 31.1429 19.857 31.2925 19.7694 31.4145C19.7179 31.4855 19.6598 31.546 19.5705 31.5861C19.5597 31.5906 19.3951 31.5009 19.3799 31.5234C19.3578 31.5567 19.4115 31.627 19.3985 31.6519C19.3445 31.7596 19.221 31.7973 19.1619 31.8942C19.1389 31.9317 19.2188 31.9732 19.193 32.0164C19.1674 32.0594 19.0523 32.0183 19.0582 32.1083C19.0634 32.176 19.2329 32.3522 19.222 32.4205C19.0225 32.2944 19.001 32.3355 18.9046 32.3752C18.8858 32.3831 18.8242 32.3259 18.8116 32.3276C18.7585 32.334 18.8029 32.3934 18.7477 32.3977C18.7345 32.3987 18.6638 32.3599 18.6489 32.3588C18.518 32.3493 18.6377 32.5135 18.6604 32.5393C18.7431 32.6424 18.638 32.6197 18.6628 32.6785C18.6883 32.7363 18.7678 32.7043 18.774 32.76C18.7871 32.8743 18.7269 32.9863 18.6916 33.0827C18.6772 33.1208 18.588 33.0544 18.5836 33.059C18.5265 33.1269 18.6003 33.249 18.3841 33.2107C18.8739 33.4766 18.3149 33.2379 18.3711 33.3899C18.3756 33.4021 18.6119 33.5164 18.6619 33.497C18.7116 33.4786 18.6583 33.3938 18.7328 33.3706C18.7507 33.3641 19.0041 33.3939 19.0216 33.3903C19.1578 33.3645 18.7984 33.2082 18.7801 33.1961C18.5818 33.0675 18.8583 33.0903 18.8834 33.0774C18.9985 33.0177 18.9797 32.9211 19.0665 32.875C19.123 32.8448 19.3566 32.9511 19.365 32.916C19.3914 32.804 19.1041 32.5844 19.4307 32.6439C19.5004 32.6575 19.7241 32.8274 19.5839 32.6377C19.5748 32.626 19.4441 32.4579 19.5721 32.4975C19.5881 32.5026 19.6552 32.5493 19.6644 32.5481C19.7256 32.5381 19.6884 32.4781 19.7426 32.4567C19.7955 32.4372 19.8678 32.4184 19.8799 32.3574C19.8882 32.3193 19.7942 32.1925 19.7759 32.1555C19.7224 32.0498 19.8903 32.122 19.8085 32.0163C19.7263 31.9101 19.5339 31.8322 19.5197 31.7158C19.6862 31.8476 19.8593 31.9802 20.0276 32.1118C20.1009 32.0138 20.1483 31.9024 20.2164 31.7956C20.2421 31.754 20.2722 31.7129 20.3085 31.676C20.3232 31.6614 20.3948 31.7528 20.4127 31.7392C20.4884 31.6812 20.4841 31.5649 20.5769 31.5125C20.6474 31.4741 20.7957 31.493 20.8723 31.4571C20.731 31.2531 20.8754 31.2224 20.9222 31.1433C20.9387 31.1156 20.8914 31.0712 20.8917 31.0407C20.8947 30.9263 21.0198 31.1052 21.0598 31.1129C21.2312 31.1451 20.8938 30.7951 20.9859 30.7207C20.9907 30.7166 21.2272 30.8472 21.2459 30.8515C21.3664 30.8807 21.1904 30.7796 21.2066 30.737C21.2359 30.6593 21.2323 30.5766 21.3485 30.5697C21.3829 30.5678 21.5398 30.6409 21.4903 30.5153C21.4837 30.499 21.4218 30.4396 21.4222 30.4323C21.4344 30.305 21.6223 30.4978 21.7252 30.5256C21.8285 30.5531 21.7622 30.3603 21.7385 30.3091C21.6769 30.1769 21.6723 30.2901 21.6613 30.2819C21.5291 30.1842 21.5937 30.1615 21.6196 30.1184C21.4438 29.9215 21.5044 29.8863 21.6472 30.0745C21.6627 30.0951 21.6184 30.103 21.6196 30.1184C21.8281 30.2777 21.9035 30.2524 21.7983 30.0197C21.749 29.9107 21.6325 29.8385 21.751 29.7944C21.8045 29.7746 21.913 29.9217 21.9807 29.9265C22.1357 29.9371 22.122 29.7195 22.2218 29.6647C22.2576 29.6451 22.2961 29.7446 22.3229 29.7337C22.3941 29.7053 22.3912 29.6071 22.4708 29.5867C22.478 29.5849 22.536 29.6728 22.5536 29.6587C22.688 29.5534 22.7542 29.4043 22.8864 29.2839C22.9501 29.2258 23.1037 29.1662 23.1631 29.0984C23.2663 28.9812 23.31 28.7414 23.4343 28.6817C23.515 28.6425 23.5691 28.7335 23.6436 28.7625C23.7879 28.8192 23.7216 28.5505 23.7095 28.5105C23.7091 28.5092 23.6368 28.5394 23.6317 28.473C23.5762 28.3738 23.7086 28.5107 23.7095 28.5105C23.7019 28.4845 23.799 28.369 23.8344 28.3648C23.8536 28.3626 23.9113 28.4431 23.9201 28.4405C24.1286 28.377 24.2954 28.2668 24.4192 28.1004C24.4206 28.0966 24.3449 28.0162 24.3491 28.0082C24.4058 27.8953 24.551 27.9489 24.676 27.9479C24.8008 27.9469 24.8424 27.8766 24.7633 27.6954C24.8337 27.667 24.8605 27.5349 24.8732 27.4577C24.8861 27.3804 25.0314 27.5389 25.0381 27.5388C25.2304 27.5369 25.2452 27.4102 25.3321 27.295C25.3421 27.282 25.353 27.2691 25.365 27.2566C25.4217 27.1968 25.5659 27.1171 25.6472 27.0803C25.7124 27.0507 25.7134 26.9845 25.782 26.9696C25.7913 26.9675 25.8456 27.0467 25.8499 27.0479C25.9766 27.0917 25.8023 26.9324 25.787 26.8909C25.7321 26.7394 25.7055 26.6566 25.821 26.6544C25.848 26.6535 26.1076 26.8762 26.1484 26.8684C26.2014 26.8577 26.112 26.7748 26.1701 26.7654C26.175 26.7646 26.2211 26.823 26.2433 26.8009C26.3474 26.6989 26.4431 26.5682 26.5647 26.4847C26.581 26.4732 26.6325 26.5824 26.657 26.5675C26.7729 26.4968 26.8857 26.4082 26.9581 26.2894C26.9758 26.2598 26.9121 26.2036 26.9036 26.1796C26.8533 26.0333 27.0261 26.1762 27.0362 26.1744C27.2858 26.1292 27.3302 25.8697 27.5872 25.8254C27.6011 25.8234 27.8048 25.9724 27.7445 25.7785C27.7404 25.7656 27.6796 25.5666 27.7835 25.6675C27.7898 25.6739 27.8165 25.7787 27.8541 25.7454C27.8908 25.7127 27.9955 25.7346 27.9997 25.6018C28.0008 25.5601 27.9533 25.3557 28.0856 25.4682C28.0945 25.4762 28.3547 25.7515 28.2692 25.5122C28.2552 25.4728 28.1262 25.2394 28.2596 25.3242C28.2853 25.3407 28.288 25.4062 28.3407 25.4208C28.4222 25.4432 28.4592 25.3442 28.582 25.4151C28.603 25.4281 28.7329 25.5652 28.7119 25.4222C28.7086 25.3998 28.6567 25.3263 28.6738 25.3067C28.7539 25.2133 28.8893 25.2128 28.9643 25.1077C28.9918 25.0702 28.9097 24.9503 28.9319 24.8966C28.9555 24.8422 29.0154 24.772 29.0852 24.8112C29.1548 24.8506 29.2095 25.0787 29.2792 25.0655C29.546 25.0159 29.7389 24.8137 29.9652 24.6668C29.9905 24.6501 30.0165 24.6341 30.0432 24.6193C30.0807 24.5985 30.0833 24.6878 30.1412 24.6624C30.3546 24.5687 30.7474 24.4769 30.8593 24.2405C30.9523 24.0493 30.7242 24.0306 30.8159 23.93C30.8617 23.8813 31.0221 24.1032 31.0382 24.1056C31.197 24.1321 31.2441 23.9859 31.3714 23.9748C31.3979 23.9725 31.414 24.0822 31.4361 24.0792C31.5111 24.07 31.569 23.9962 31.6364 23.9802C31.6673 23.9731 31.6908 24.0524 31.7156 24.0364C31.7752 23.9989 31.8209 23.9453 31.8595 23.8493C31.8631 23.8405 31.7884 23.7583 31.8364 23.737C31.9122 23.7036 31.9859 23.5971 32.1037 23.6405C32.1386 23.6537 32.1999 23.8319 32.2159 23.6894C32.2194 23.6596 32.1331 23.4496 32.2618 23.6133C32.2838 23.6402 32.4768 23.8551 32.4818 23.6755C32.4833 23.6281 32.4661 23.4395 32.5074 23.4573C32.5131 23.4604 32.5252 23.5626 32.5549 23.5638C32.659 23.5666 32.7572 23.5264 32.8639 23.5293C32.8921 23.5303 32.8821 23.642 32.9231 23.6404C33.0352 23.6364 33.1635 23.5746 33.259 23.5167C33.2944 23.4951 33.2466 23.4176 33.2471 23.4077C33.2552 23.2472 33.3324 23.4418 33.3501 23.45C33.4603 23.4975 33.5113 23.3856 33.6024 23.3915C33.6277 23.3928 33.6325 23.4931 33.6391 23.5006C33.7065 23.5739 33.6316 23.4086 33.6585 23.3826C33.7335 23.3093 33.8356 23.296 33.9262 23.2909C33.9596 23.2892 33.9454 23.4089 33.9749 23.4061C34.15 23.3918 34.3274 23.3496 34.4867 23.2611C34.5169 23.2442 34.4834 23.1601 34.4871 23.1391C34.5126 22.9924 34.6097 23.1728 34.6276 23.1888C34.7091 23.2619 34.7256 23.1809 34.7899 23.1872C35.1056 23.2188 35.4713 23.1347 35.7618 23.0888C36.1348 23.0296 36.4331 22.9436 36.7954 22.9766C36.8184 22.9786 36.7913 23.0952 36.8109 23.0985C37.0652 23.1356 37.3164 23.106 37.5689 23.1641C37.5893 23.1686 37.549 23.2766 37.5812 23.2876C37.647 23.311 37.7331 23.314 37.8063 23.2867C37.8421 23.2736 37.8076 23.1734 37.8436 23.1622C37.9281 23.136 38.0142 23.139 38.0928 23.1677C38.1262 23.1802 38.0588 23.2859 38.1032 23.2934C38.4079 23.3471 38.698 23.4178 39.0345 23.338C39.0575 23.3325 39.1244 23.1101 39.1607 23.1634C39.1504 23.2269 39.1341 23.3007 39.121 23.3681C39.5562 23.5009 40.0068 23.5395 40.4506 23.6684C40.4689 23.6738 40.4001 23.7805 40.4353 23.7914C40.6389 23.8551 40.8282 23.9564 41.0752 23.9175C41.1 23.914 41.1641 23.7076 41.2145 23.7612C41.2232 23.7708 41.3061 23.8329 41.3133 23.8859C41.314 23.8937 41.261 23.9813 41.2897 23.9954C41.4574 24.0764 41.6387 24.1251 41.8349 24.1415C41.8665 24.144 41.879 24.0327 41.902 24.0337C42.0664 24.0418 42.1793 24.181 42.3531 24.1534C42.4694 24.1347 42.5141 23.9512 42.6392 23.8081C42.657 23.7879 42.7153 23.8107 42.7635 23.7161C42.8848 23.4781 42.9807 23.2002 43.1133 22.9481C43.1418 22.8937 43.1939 22.9913 43.2096 22.8349C43.2105 22.8244 43.173 22.7525 43.1798 22.7002C43.1844 22.664 43.2482 22.5747 43.2463 22.5247C43.2443 22.4748 43.1836 22.5464 43.1712 22.4832C43.1591 22.4194 43.2254 22.3146 43.1625 22.2699ZM24.9345 27.1094C24.9113 26.9943 25.1603 27.2786 25.0558 27.2482C25.0504 27.2464 24.9356 27.1152 24.9345 27.1094ZM19.9725 31.6144C19.965 31.5989 19.9603 31.5859 19.9578 31.5751C19.9314 31.4758 20.1147 31.588 20.1741 31.6974C20.199 31.7428 20.1804 31.7484 20.146 31.7356C20.0878 31.7161 19.9874 31.6454 19.9725 31.6144ZM19.4126 32.1126C19.3583 31.9667 19.7901 32.284 19.6534 32.2849C19.6456 32.2852 19.4158 32.121 19.4126 32.1126ZM42.4362 23.6582C42.4389 23.6539 42.4815 23.6677 42.4804 23.6727C42.4524 23.7917 42.3679 23.7642 42.4362 23.6582ZM18.9155 32.6455C18.8626 32.5892 18.9714 32.5629 19.036 32.6332C19.0886 32.6882 18.9821 32.7138 18.9155 32.6455ZM26.9934 25.0422C26.9912 25.0369 27.0163 25.0159 27.0321 25.0435C27.0829 25.1326 27.0299 25.1307 26.9934 25.0422ZM18.4047 33.8126C18.4659 33.6295 18.1051 33.3486 18.069 33.5533C18.0624 33.5903 18.2299 33.5391 18.2472 33.5983C18.2787 33.706 18.0025 33.642 18.1001 33.7852C18.1179 33.8116 18.4024 33.823 18.4054 33.8126C18.4051 33.8126 18.4049 33.8126 18.4047 33.8126ZM24.6678 26.7409C24.6655 26.7364 24.697 26.7038 24.701 26.7069C24.7967 26.7832 24.7333 26.8488 24.6678 26.7409ZM28.5622 23.9509C28.5594 23.9403 28.6485 23.8861 28.6562 23.8934C28.7901 24.0464 28.6106 24.1563 28.5622 23.9509ZM22.1913 28.5118C22.0743 28.4544 22.0206 28.4834 22.0925 28.6225C22.1235 28.5838 22.1596 28.55 22.1913 28.5118Z" fill="#F8F8FA"/>
<path d="M18.8443 22.515C18.8642 22.6633 18.8121 22.8511 18.7511 22.9916C18.7322 23.0356 18.6675 23.0067 18.6515 23.0368C18.6201 23.0959 18.6477 23.1559 18.6115 23.2138C18.5991 23.2329 18.4957 23.1985 18.4852 23.2188C18.4282 23.3301 18.4455 23.4414 18.4127 23.5564C18.2511 24.1221 18.162 24.6842 18.0644 25.2621C18.0323 25.4528 17.9169 25.6771 17.9423 25.8798C17.9454 25.9034 18.0393 25.8973 18.0466 25.9023C18.1579 25.981 17.9725 25.9426 17.9439 25.9855C17.831 26.1556 17.8062 26.355 17.8282 26.5297C17.8378 26.6045 18.028 26.5456 17.9187 26.6112C17.9113 26.6158 17.8142 26.5893 17.8021 26.6086C17.7748 26.6523 17.7856 26.7401 17.775 26.7746C17.7541 26.841 17.7542 26.8526 17.748 26.9171C17.7387 27.0052 17.6816 27.106 17.6968 27.2015C17.7003 27.2222 17.8034 27.2031 17.8181 27.2367C17.8328 27.2704 17.8177 27.355 17.7917 27.3819C17.7657 27.4088 17.6872 27.3905 17.6686 27.3942C17.5118 27.4245 17.7173 27.5385 17.7216 27.5514C17.7941 27.79 17.6585 27.9782 17.6437 28.1948C17.6327 28.3593 17.6609 28.5372 17.6451 28.6938C17.626 28.8798 17.5612 29.0346 17.5597 29.2155C17.5594 29.2345 17.6797 29.2194 17.6796 29.2426C17.6786 29.492 17.6519 29.736 17.5592 29.9778C17.5498 30.0022 17.4469 29.9649 17.4313 29.9891C17.3377 30.1356 17.1205 30.3684 17.5719 30.476C17.5499 30.5768 17.5266 30.7019 17.4317 30.7883C17.3706 30.8451 17.2587 30.7837 17.3047 30.8587C17.315 30.8756 17.4155 30.8575 17.4233 30.8825C17.4564 30.9877 17.4206 31.097 17.4695 31.2017C17.4797 31.2227 17.5692 31.2193 17.5852 31.2256C17.7143 31.2781 17.497 31.3527 17.4809 31.3711C17.3612 31.5073 17.4057 31.6038 17.4016 31.7325C17.4006 31.7619 17.521 31.7283 17.5244 31.7565C17.5404 31.9 17.5299 32.0512 17.4781 32.1951C17.4663 32.2269 17.3637 32.1989 17.3528 32.2142C17.3062 32.2822 17.4996 32.292 17.459 32.3573C17.4507 32.3712 17.363 32.3651 17.3534 32.3678C17.2032 32.4102 17.4179 32.4392 17.4229 32.4487C17.4862 32.5607 17.2963 32.6493 17.3031 32.7548C17.3035 32.7622 17.3049 32.7696 17.3072 32.7772C17.3119 32.7916 17.421 32.7535 17.4275 32.7941C17.4714 33.0598 17.4636 33.3337 17.4187 33.5951C17.4122 33.6367 17.3253 33.6233 17.3156 33.6274C17.1652 33.6975 17.3816 33.684 17.3918 33.6938C17.4675 33.7777 17.3178 33.9167 17.5809 33.9016C17.5921 34.0955 17.6874 34.2305 17.7544 34.2798C17.8164 34.3333 17.9306 34.3848 18.1432 34.4839C18.1485 34.4862 18.1467 34.5925 18.1577 34.5965C18.2937 34.644 18.2553 34.4812 18.3037 34.2712C18.3147 34.2187 18.4186 34.4472 18.4286 34.4633C18.4618 34.524 18.4677 34.6829 18.4773 34.6941C18.5595 34.7802 18.4499 34.2713 18.5268 34.2552C18.5295 34.2555 18.5387 34.3515 18.5474 34.3594C18.5747 34.3842 18.5873 34.3425 18.6146 34.3703C18.6771 34.4345 18.7537 34.6767 18.7929 34.516C18.7978 34.4952 18.715 34.2115 18.7908 34.2074C18.8082 34.2067 18.8586 34.1939 18.9071 34.1847L18.8897 34.1895C18.9241 34.1814 18.9566 34.1757 18.9741 34.1788C19.0163 34.1862 19.0181 34.2849 19.0219 34.2881C19.1564 34.3796 19.1337 34.4407 19.2355 34.6049C19.3369 34.7685 19.1984 34.3478 19.2046 34.2945C19.2108 34.2413 19.3121 34.3199 19.3402 34.3493C19.3681 34.3788 19.3628 34.4433 19.3844 34.4583C19.5264 34.556 19.3691 34.2339 19.3841 34.1564C19.4197 33.9728 19.5733 34.2702 19.657 34.2798C19.6796 34.2823 19.6425 34.2151 19.6587 34.2033C19.7229 34.1572 19.7936 34.2436 19.8488 34.1304C19.8578 34.1119 19.8697 33.9035 19.9518 34.031C19.9635 34.0494 19.9684 34.133 20.0038 34.1421C20.0568 34.1558 20.1433 34.1504 20.1845 34.1106C20.215 34.0812 20.138 33.9626 20.1943 33.9905C20.2193 34.003 20.2031 34.0893 20.2483 34.1065C20.2939 34.1235 20.3896 34.0938 20.4255 34.0812C20.4613 34.0686 20.4146 33.9753 20.4157 33.9679C20.4233 33.9249 20.4806 33.8584 20.4868 33.8568C20.7992 33.7598 21.1323 33.8513 21.4247 33.7193C21.4476 33.7092 21.4055 33.6085 21.4087 33.6059C21.4812 33.5413 21.4849 33.8358 21.5658 33.9146C21.5047 33.7043 21.5485 33.7342 21.6009 33.6966C21.6261 33.6783 21.5906 33.5998 21.5911 33.5907C21.602 33.4555 21.6704 33.6099 21.6859 33.6412C21.7427 33.7561 21.738 33.6051 21.7766 33.6818C21.8149 33.7579 21.8006 33.888 21.8561 33.8729C21.8535 33.793 21.7638 33.604 21.7987 33.5615C21.9299 33.4005 22.266 33.4871 22.3999 33.4743C22.5327 33.4615 22.5703 33.4384 22.6525 33.4494C22.7995 33.4697 22.7173 33.3322 22.787 33.2461C22.8579 33.1599 22.8942 33.5342 22.9231 33.6102C22.9518 33.6862 22.9477 33.6026 22.9717 33.6426C22.9956 33.6827 22.9749 33.7429 23.013 33.7518C23.0511 33.7606 23.1161 33.6012 23.1114 33.5164C23.1016 33.3368 23.0201 33.1628 23.1271 33.2079C23.1333 33.2106 23.1355 33.3104 23.158 33.316C23.3352 33.3571 23.5046 33.3287 23.6782 33.3643C23.7023 33.3693 23.7024 33.4805 23.7166 33.4846C23.864 33.5284 23.7821 33.3562 23.8196 33.1413C23.8516 33.4124 23.9213 33.569 24.0239 33.5526C24.0851 33.543 24.0542 33.4276 24.0795 33.3381C24.0872 33.3111 24.1437 33.3844 24.1426 33.3278C24.1384 33.143 24.0629 32.9479 24.1839 33.0105C24.1893 33.0135 24.1907 33.1148 24.2079 33.1181C24.3186 33.1402 24.2996 32.9494 24.4112 32.9085C24.4972 32.8767 24.6752 32.9684 24.7775 32.9736C24.817 33.2774 24.903 33.1949 24.9144 32.9805C24.9809 32.9805 25.0514 32.9597 25.119 32.9811C25.1421 32.9884 25.138 33.0782 25.1419 33.0874C25.2015 33.2317 25.2058 33.0245 25.2192 33.0148C25.3673 32.9195 25.5075 33.0622 25.6421 32.8983C25.6469 32.8924 25.6389 32.6795 25.6916 32.8313C25.6949 32.8418 25.6532 32.9421 25.7239 32.9441C25.7939 32.9462 25.9335 33.0514 26.0243 32.9484C26.0467 32.9236 26.101 32.7482 26.1536 32.8815C26.1606 32.8996 26.1558 32.9609 26.1659 32.9945C26.1978 33.1017 26.2096 32.8862 26.249 33.068C26.2891 33.2499 26.3573 33.3851 26.4525 33.2593C26.4553 33.2556 26.4787 33.0852 26.5089 33.0882C26.5584 33.0932 26.6266 33.1303 26.6762 33.1312C26.7009 33.1316 26.6895 33.0252 26.6938 33.0234C26.7408 33.0091 26.783 33.0067 26.8224 33.0119L26.8027 33.0121C26.9051 33.0093 27.006 33.055 27.1357 33.0671C27.1684 33.0704 27.2382 32.9145 27.3164 33.0184C27.4009 33.1324 27.408 33.6564 27.5425 33.512C27.5955 33.4545 27.5864 32.7898 27.7429 33.1145C27.9513 33.0034 28.1648 33.1591 28.3743 33.029C28.3835 33.0233 28.4075 32.8381 28.4318 32.8398C28.468 32.8427 28.4884 32.9282 28.5134 32.9334C28.618 32.957 28.712 32.8836 28.8133 32.8973C28.852 32.9024 28.8356 32.9909 28.8802 32.9973C28.9242 33.0037 28.9609 32.8879 29.0186 32.9476C29.0629 32.9932 29.0933 33.2349 29.1486 33.2671C29.1683 33.0319 29.2112 33.0398 29.29 32.9846C29.3054 32.9739 29.2978 32.8906 29.3055 32.8813C29.3375 32.8418 29.3568 32.9122 29.3884 32.8692C29.3961 32.8589 29.4051 32.7788 29.4119 32.7658C29.4701 32.6525 29.5251 32.8419 29.5335 32.8748C29.5671 33 29.6022 32.899 29.6332 32.951C29.6635 33.0029 29.6003 33.0536 29.639 33.088C29.7182 33.1592 29.8319 33.1646 29.9189 33.1843C29.9541 33.1918 29.9495 33.0815 29.955 33.0801C30.0357 33.0672 30.0841 33.1937 30.1697 32.9926C30.1079 33.5461 30.2244 32.9488 30.3078 33.0811C30.3144 33.0917 30.2664 33.3496 30.227 33.3802C30.1878 33.4108 30.1593 33.3207 30.1039 33.3704C30.0902 33.3819 29.9837 33.6108 29.9737 33.6241C29.8921 33.7264 29.9579 33.3404 29.9581 33.3185C29.9627 33.0829 29.8424 33.3302 29.8219 33.3453C29.7222 33.4131 29.6607 33.3478 29.5798 33.3967C29.5279 33.4284 29.4896 33.6822 29.4564 33.67C29.3453 33.6298 29.3373 33.269 29.1977 33.5679C29.1683 33.6319 29.1683 33.913 29.1032 33.6867C29.0997 33.6725 29.0505 33.4667 29.006 33.5921C29.0005 33.6079 28.996 33.6895 28.9898 33.696C28.9483 33.7382 28.9256 33.6719 28.881 33.7014C28.8371 33.731 28.7853 33.7761 28.7375 33.7477C28.7093 33.7307 28.6717 33.5783 28.6569 33.5411C28.6153 33.4337 28.5737 33.6103 28.5459 33.4808C28.517 33.3506 28.566 33.151 28.4925 33.0682C28.4952 33.2805 28.4952 33.4986 28.4972 33.7121C28.355 33.7086 28.2092 33.649 28.0624 33.6724C28.0442 33.6755 28.0737 33.7873 28.0548 33.7936C27.9762 33.8195 27.8948 33.7468 27.8121 33.7899C27.7478 33.8237 27.6902 33.9535 27.6227 33.9938C27.5445 33.7594 27.4469 33.857 27.3607 33.8471C27.331 33.8436 27.3233 33.7791 27.2996 33.7611C27.2101 33.6948 27.2769 33.9021 27.2597 33.9387C27.1832 34.0947 27.1106 33.6144 26.9994 33.6399C26.9943 33.6411 26.9465 33.907 26.936 33.9242C26.8804 34.0282 26.9107 33.8613 26.8787 33.8262C26.8564 33.8261 26.7906 33.8313 26.7686 33.8277C26.7673 33.8248 26.7656 33.8226 26.7635 33.8211C26.7089 33.7826 26.6646 33.7185 26.5923 33.7924C26.5708 33.8142 26.5167 33.9746 26.4788 33.8495C26.4736 33.8331 26.4771 33.7475 26.4728 33.7424C26.3932 33.6585 26.3898 33.9279 26.3477 34.0195C26.3061 34.111 26.2321 33.9272 26.2149 33.8742C26.1728 33.737 26.2426 33.8141 26.2444 33.8006C26.2652 33.6382 26.2111 33.6674 26.1714 33.6552C26.1565 33.3917 26.0983 33.4098 26.1289 33.6437C26.1323 33.6692 26.1629 33.6434 26.1714 33.6552C26.1454 33.9151 26.087 33.9506 26.0062 33.7128C25.9676 33.6014 25.9916 33.4674 25.8931 33.5219C25.8482 33.5467 25.8781 33.7268 25.8426 33.7789C25.7618 33.8978 25.6312 33.7387 25.5384 33.7745C25.5049 33.7875 25.548 33.8832 25.5255 33.8955C25.4678 33.9283 25.4063 33.8597 25.3477 33.9046C25.3424 33.9088 25.3677 34.0108 25.3485 34.0142C25.2066 34.0423 25.0718 33.9919 24.9177 34.0112C24.8455 34.0202 24.7192 34.0966 24.6429 34.0966C24.5074 34.0976 24.3197 33.9749 24.2112 34.0309C24.1413 34.0668 24.1753 34.1666 24.1559 34.242C24.1185 34.3881 23.9674 34.1651 23.9458 34.1303C23.9452 34.1291 24.0043 34.0935 23.9609 34.047C23.9212 33.941 23.9464 34.1297 23.9458 34.1303C23.9321 34.1077 23.7994 34.1082 23.7774 34.1327C23.7658 34.146 23.7917 34.2414 23.7853 34.2465C23.6325 34.3653 23.4679 34.4235 23.2857 34.414C23.2823 34.4127 23.2645 34.3037 23.2567 34.3019C23.1474 34.2745 23.1096 34.4205 23.0447 34.5163C22.98 34.6121 22.9094 34.6001 22.8195 34.426C22.7617 34.4631 22.6558 34.401 22.5925 34.3632C22.5296 34.3254 22.5699 34.5365 22.5664 34.5416C22.4564 34.7061 22.3474 34.6053 22.1971 34.6212C22.1264 34.6282 21.994 34.6922 21.9258 34.7331C21.8713 34.7659 21.8236 34.7258 21.7765 34.7707C21.7701 34.7767 21.8006 34.8676 21.7992 34.8718C21.7657 34.998 21.7386 34.7638 21.7159 34.7265C21.6329 34.5907 21.5857 34.5191 21.5248 34.6081C21.5107 34.6286 21.5409 34.9682 21.513 34.9956C21.4765 35.0307 21.4625 34.9097 21.4252 34.9495C21.422 34.9527 21.4413 35.0246 21.4133 35.0285C21.2832 35.0472 21.1317 35.042 21.002 35.0842C20.9841 35.0897 21.0377 35.1977 21.0123 35.2075C20.8926 35.2539 20.7591 35.2854 20.6245 35.265C20.5913 35.2596 20.5879 35.1748 20.575 35.1529C20.4959 35.0206 20.4983 35.2438 20.4902 35.2503C20.2999 35.4106 20.0802 35.2696 19.8829 35.4231C19.8723 35.4318 19.844 35.6808 19.7471 35.5023C19.7406 35.4905 19.6426 35.3075 19.6449 35.4515C19.6451 35.4605 19.7001 35.5533 19.6522 35.5561C19.6047 35.559 19.5531 35.6468 19.4592 35.5548C19.4296 35.5259 19.3259 35.3454 19.3136 35.5175C19.3134 35.5213 19.3147 35.5632 19.3131 35.6104C19.3045 35.612 19.2795 35.6207 19.2708 35.622C19.261 35.7212 19.2347 35.8435 19.1702 35.6838C19.1542 35.645 19.0983 35.3845 19.0528 35.536C19.0442 35.5653 19.0851 35.6167 19.0544 35.6621C19.008 35.7319 18.9098 35.6813 18.8542 35.8143C18.8446 35.8378 18.8201 36.0277 18.7416 35.9028C18.7296 35.8832 18.7281 35.793 18.6995 35.7882C18.567 35.7643 18.4314 35.846 18.2699 35.7976C18.2131 35.7802 18.2309 35.6349 18.1736 35.5997C18.1144 35.5649 18.0015 35.5293 17.9327 35.5912C17.8615 35.6529 17.9279 35.8877 17.8087 35.8966C17.2674 35.9805 16.517 35.3339 16.3542 34.8802C16.3206 34.8132 16.2762 34.9052 16.225 34.8093C16.0289 34.4434 15.8612 33.9654 16.0018 33.7197C16.1143 33.5217 16.2511 33.7288 16.2886 33.5878C16.3075 33.5257 16.035 33.4899 16.0249 33.4746C15.9235 33.3359 16.0325 33.2227 15.9873 33.0985C15.978 33.0721 15.872 33.106 15.8653 33.0833C15.8411 33.0043 15.885 32.9253 15.8725 32.8505C15.8696 32.8338 15.8473 32.828 15.8265 32.8223C15.8061 32.8171 15.7872 32.8121 15.7897 32.7974C15.8009 32.7265 15.8332 32.6615 15.9084 32.589C15.9152 32.5826 16.0191 32.6211 16.0213 32.5699C16.0248 32.4889 16.0987 32.3793 16.0187 32.2887C15.9947 32.2611 15.8061 32.2623 15.9356 32.1998C15.9627 32.1866 16.1892 32.2014 15.9931 32.1314C15.9604 32.1189 15.6961 32.0037 15.8663 31.9445C15.9111 31.929 16.0964 31.8902 16.0675 31.8561C16.0628 31.8516 15.9615 31.8691 15.9518 31.8417C15.9192 31.7458 15.9311 31.6397 15.9009 31.5405C15.8926 31.5138 15.7872 31.5518 15.7783 31.512C15.7535 31.4018 15.7832 31.264 15.8188 31.1585C15.8321 31.1193 15.9182 31.1489 15.9277 31.1463C16.0825 31.1042 15.876 31.071 15.8643 31.0551C15.7946 30.9584 15.8943 30.89 15.8715 30.8009C15.8655 30.7763 15.7661 30.7901 15.7575 30.785C15.6731 30.7315 15.8493 30.7752 15.87 30.7442C15.9284 30.6593 15.9242 30.5612 15.9153 30.4706C15.9119 30.4373 15.7958 30.4696 15.794 30.4401C15.7814 30.2678 15.8007 30.0861 15.8723 29.9211C15.886 29.8898 15.9731 29.9143 15.9936 29.9086C16.1368 29.8697 15.9481 29.7933 15.9305 29.7773C15.8506 29.7036 15.93 29.6806 15.9188 29.6181C15.8625 29.3135 15.9367 28.944 15.987 28.6648C16.052 28.2987 16.1557 28.02 16.1594 27.6687C16.1598 27.6464 16.041 27.6602 16.0398 27.6409C16.0297 27.3902 16.0939 27.1501 16.0792 26.9009C16.0782 26.8803 15.965 26.901 15.9596 26.8678C15.9479 26.7997 15.9607 26.7141 16.0014 26.65C16.0211 26.6185 16.1129 26.6701 16.1307 26.6382C16.1725 26.5641 16.187 26.4819 16.1756 26.4009C16.1705 26.3664 16.0529 26.4084 16.0551 26.3642C16.0678 26.0651 16.0724 25.7693 16.2446 25.4801C16.2565 25.4603 16.4886 25.4616 16.4481 25.4139C16.3844 25.4053 16.309 25.3991 16.2408 25.3919C16.2404 24.9545 16.3574 24.5312 16.4077 24.098C16.4098 24.0797 16.2848 24.1008 16.2883 24.0652C16.308 23.8603 16.2917 23.6573 16.4316 23.4584C16.4454 23.4386 16.6593 23.4683 16.6322 23.4041C16.6273 23.3927 16.6068 23.2977 16.5622 23.2696C16.5555 23.2657 16.4537 23.2737 16.4534 23.2437C16.4535 23.0695 16.4925 22.8898 16.5691 22.7228C16.5817 22.6958 16.6859 22.735 16.6958 22.7158C16.765 22.5801 16.6974 22.4197 16.8064 22.2939C16.8797 22.2097 17.0614 22.2594 17.2474 22.2278C17.2736 22.2233 17.2827 22.1679 17.3887 22.1745C17.6552 22.1908 17.944 22.2437 18.2284 22.2579C18.2897 22.261 18.2306 22.1805 18.3742 22.2379C18.3838 22.2418 18.4279 22.3003 18.4768 22.3181C18.5105 22.3305 18.6196 22.3233 18.6622 22.3462C18.7047 22.3691 18.6127 22.3819 18.662 22.4179C18.7119 22.454 18.8354 22.4511 18.8443 22.515ZM22.3094 34.1951C22.238 34.1058 22.3168 34.4754 22.3479 34.3753C22.3493 34.37 22.313 34.1995 22.3094 34.1951ZM28.1877 33.3664C28.1137 33.2048 28.0908 33.4529 28.1447 33.5775C28.1967 33.7022 28.2095 33.4155 28.1877 33.3664ZM28.8256 33.2293C28.7538 33.0963 28.7353 33.6318 28.8118 33.5251C28.8162 33.5191 28.8296 33.2371 28.8256 33.2293ZM17.2794 22.4542C17.2844 22.454 17.2929 22.4144 17.288 22.413C17.1704 22.381 17.1536 22.4602 17.2794 22.4542ZM29.482 33.1462C29.4671 33.0713 29.391 33.1468 29.4094 33.2396C29.4234 33.3141 29.4995 33.2392 29.482 33.1462ZM19.7097 34.4565C19.7074 34.4513 19.6781 34.4544 19.6875 34.4848C19.7176 34.5828 19.7483 34.5439 19.7097 34.4565ZM30.5798 33.3547C30.4284 33.2945 30.4255 32.8393 30.5987 32.9334C30.6293 32.9504 30.4931 33.0524 30.5255 33.1016C30.5825 33.1908 30.7025 32.935 30.7429 33.1002C30.7493 33.1301 30.5876 33.3589 30.5793 33.3553C30.5795 33.3551 30.5796 33.3549 30.5798 33.3547ZM22.1788 33.7596C22.1767 33.755 22.1366 33.7595 22.1368 33.7645C22.1431 33.8862 22.2236 33.8773 22.1788 33.7596ZM18.0546 34.5912C18.0526 34.5811 17.9718 34.5697 17.9698 34.5787C17.9104 34.7735 18.0986 34.7983 18.0546 34.5912ZM24.7802 32.9815C24.8079 32.8559 24.8599 32.8346 24.9142 32.9803C24.8698 32.978 24.8253 32.9828 24.7802 32.9815Z" fill="#F8F8FA"/>
<path d="M55.8501 22.035C55.1489 21.8116 54.5576 21.4889 54.0763 21.0669C53.6084 20.638 53.2865 20.1548 53.1107 19.6175C52.938 19.0699 52.9389 18.5048 53.1133 17.9223L54.5921 18.3933C54.4842 18.9075 54.5532 19.3941 54.7988 19.8529C55.0579 20.3049 55.5329 20.6409 56.2241 20.8611C56.8847 21.0715 57.4548 21.074 57.9345 20.8686C58.4275 20.6562 58.7566 20.2908 58.9217 19.7725C59.0512 19.366 59.0446 19 58.902 18.6747C58.7593 18.3494 58.5413 18.0673 58.248 17.8283C57.9547 17.5894 57.5478 17.303 57.0272 16.9692C56.3842 16.5629 55.8784 16.2003 55.5098 15.8814C55.1513 15.5657 54.8812 15.1662 54.6993 14.6829C54.5308 14.1926 54.5518 13.6171 54.7622 12.9565C54.9468 12.3772 55.2576 11.9109 55.6948 11.5576C56.132 11.2043 56.6537 10.9898 57.2599 10.9143C57.8763 10.8419 58.53 10.9158 59.2211 11.136C60.2172 11.4532 60.9509 11.9612 61.4224 12.66C61.9041 13.362 62.0545 14.1375 61.8735 14.9867L60.349 14.501C60.4277 14.0783 60.3276 13.6546 60.0486 13.2299C59.7729 12.7951 59.3251 12.4789 58.7051 12.2814C58.1258 12.0969 57.6047 12.0988 57.1417 12.2871C56.6819 12.4653 56.3662 12.8237 56.1946 13.3624C56.0716 13.7486 56.0779 14.0977 56.2137 14.4096C56.3596 14.7247 56.569 14.9986 56.842 15.2311C57.1284 15.4566 57.5353 15.743 58.0629 16.0901C58.7026 16.5066 59.2052 16.8794 59.5705 17.2085C59.9391 17.5274 60.2127 17.9336 60.3914 18.4271C60.5733 18.9104 60.5574 19.4875 60.3437 20.1583C60.1786 20.6766 59.886 21.1208 59.4659 21.4907C59.0458 21.8607 58.5211 22.1021 57.8918 22.2151C57.2624 22.3281 56.5819 22.2681 55.8501 22.035ZM65.4518 17.0332L63.8832 21.9575C63.7537 22.364 63.7479 22.6812 63.8656 22.909C63.9866 23.1266 64.2605 23.3035 64.6874 23.4394L65.7088 23.7648L65.3349 24.9387L64.0848 24.5405C63.3123 24.2944 62.7897 23.932 62.5168 23.4533C62.2439 22.9745 62.2369 22.3286 62.4959 21.5155L64.0645 16.5913L62.9821 16.2465L63.3463 15.1031L64.4287 15.4479L65.0988 13.3441L66.4862 13.786L65.816 15.8899L67.9961 16.5843L67.6319 17.7277L65.4518 17.0332ZM67.8377 21.1013C68.1097 20.2476 68.5204 19.5556 69.0699 19.0254C69.6227 18.485 70.2556 18.1324 70.9685 17.9677C71.6916 17.8063 72.4242 17.8437 73.1661 18.08C73.8979 18.3131 74.4829 18.673 74.9212 19.1596C75.3595 19.6463 75.6347 20.1706 75.7468 20.7324L76.2324 19.2079L77.635 19.6547L74.9738 28.0091L73.5712 27.5623L74.0666 26.0073C73.6367 26.4077 73.0956 26.6831 72.4432 26.8335C71.8042 26.977 71.1239 26.9338 70.4022 26.704C69.6603 26.4676 69.0478 26.071 68.5647 25.5141C68.0816 24.9572 67.7725 24.2934 67.6374 23.5227C67.5022 22.752 67.569 21.9449 67.8377 21.1013ZM74.9067 23.3698C75.1074 22.7397 75.1552 22.1504 75.05 21.6019C74.9449 21.0535 74.7126 20.5877 74.3533 20.2046C74.0073 19.8145 73.5752 19.5369 73.0569 19.3718C72.5385 19.2067 72.0271 19.1781 71.5225 19.2861C71.018 19.394 70.5642 19.6413 70.1612 20.0279C69.7581 20.4144 69.4563 20.9228 69.2556 21.5529C69.0516 22.1932 69.0006 22.7927 69.1025 23.3513C69.2077 23.8998 69.4332 24.369 69.7791 24.7591C70.1283 25.139 70.5621 25.4115 71.0804 25.5766C71.5987 25.7417 72.1102 25.7703 72.6148 25.6624C73.1327 25.5475 73.5932 25.2968 73.9962 24.9102C74.4025 24.5134 74.706 24 74.9067 23.3698ZM80.9345 22.2002C81.3306 21.8002 81.7943 21.5393 82.3257 21.4175C82.8672 21.299 83.4632 21.3433 84.1137 21.5505L83.6572 22.9835L83.2913 22.867C81.7363 22.3716 80.6901 22.9675 80.1527 24.6547L78.7055 29.1978L77.3182 28.7558L79.9794 20.4015L81.3667 20.8434L80.9345 22.2002ZM86.9946 23.8955L85.4261 28.8197C85.2966 29.2262 85.2907 29.5434 85.4084 29.7712C85.5294 29.9889 85.8033 30.1657 86.2302 30.3017L87.2516 30.627L86.8777 31.8009L85.6276 31.4027C84.8552 31.1567 84.3325 30.7943 84.0596 30.3155C83.7867 29.8368 83.7797 29.1909 84.0387 28.3778L85.6073 23.4536L84.5249 23.1088L84.8891 21.9654L85.9715 22.3102L86.6417 20.2063L88.029 20.6482L87.3588 22.7521L89.5389 23.4465L89.1747 24.5899L86.9946 23.8955ZM91.4725 33.4157C90.8322 33.2117 90.2919 32.9221 89.8517 32.5468C89.4148 32.1613 89.1105 31.7285 88.9387 31.2484C88.7703 30.7581 88.7517 30.2541 88.8831 29.7362L90.3161 30.1927C90.2241 30.6223 90.3087 31.0243 90.5701 31.3986C90.8417 31.7762 91.262 32.0556 91.8312 32.2369C92.3597 32.4053 92.8136 32.4211 93.193 32.2845C93.5723 32.1479 93.8187 31.9017 93.932 31.5459C94.0485 31.1801 93.9717 30.8589 93.7015 30.5826C93.4346 30.296 92.9881 29.9579 92.3622 29.5682C91.794 29.2081 91.3376 28.8836 90.9931 28.5947C90.6619 28.2989 90.4058 27.9431 90.2248 27.5272C90.0573 27.1044 90.0593 26.6237 90.2309 26.085C90.3668 25.6581 90.6185 25.3073 90.9859 25.0325C91.3533 24.7577 91.8031 24.5932 92.3354 24.5388C92.8709 24.4743 93.4385 24.5376 94.0381 24.7286C94.963 25.0232 95.6356 25.4949 96.0558 26.1437C96.476 26.7925 96.577 27.53 96.3586 28.356L94.9713 27.9141C95.08 27.4673 95.0139 27.06 94.7728 26.6922C94.5419 26.3276 94.1571 26.0595 93.6185 25.8879C93.1205 25.7293 92.6901 25.7097 92.3274 25.8293C91.9646 25.9488 91.7282 26.1814 91.6182 26.5269C91.5308 26.8013 91.5443 27.0575 91.6588 27.2955C91.7867 27.5266 91.965 27.7401 92.1936 27.936C92.4357 28.1251 92.7745 28.3618 93.2101 28.646C93.7579 28.9997 94.194 29.3177 94.5182 29.6001C94.8457 29.8723 95.0914 30.2081 95.2553 30.6073C95.4293 31.0098 95.4405 31.4667 95.2888 31.9782C95.1431 32.4355 94.885 32.8067 94.5143 33.0916C94.1437 33.3766 93.6906 33.5513 93.1551 33.6158C92.633 33.6734 92.0721 33.6067 91.4725 33.4157ZM112.16 28.15L108.775 38.776L107.387 38.3341L108.922 33.5166L103.51 31.7926L101.975 36.6101L100.588 36.1682L103.973 25.5423L105.36 25.9842L103.874 30.6492L109.286 32.3732L110.772 27.7081L112.16 28.15ZM120.199 37.4613C120.115 37.7256 120.01 38.0002 119.886 38.2852L113.209 36.1582C112.997 36.9976 113.071 37.732 113.43 38.3614C113.803 38.9839 114.355 39.4117 115.087 39.6448C115.687 39.8358 116.228 39.8572 116.712 39.7091C117.209 39.554 117.614 39.2686 117.925 38.8529L119.419 39.3288C118.94 40.0605 118.284 40.5736 117.451 40.8681C116.622 41.1524 115.709 41.1359 114.713 40.8187C113.92 40.5662 113.265 40.1617 112.749 39.6052C112.242 39.052 111.914 38.3935 111.766 37.6297C111.621 36.8558 111.686 36.0369 111.961 35.173C112.236 34.3091 112.65 33.607 113.203 33.0666C113.755 32.5262 114.397 32.1819 115.127 32.0339C115.87 31.8789 116.649 31.9309 117.462 32.1899C118.254 32.4424 118.901 32.8386 119.4 33.3784C119.9 33.9182 120.215 34.5448 120.346 35.2582C120.491 35.9647 120.442 36.699 120.199 37.4613ZM118.858 36.7152C119.026 36.1867 119.054 35.6972 118.94 35.2466C118.829 34.786 118.601 34.3943 118.256 34.0717C117.924 33.7422 117.515 33.4997 117.027 33.3443C116.325 33.1209 115.655 33.1535 115.014 33.4421C114.384 33.7339 113.907 34.2648 113.583 35.0349L118.858 36.7152ZM124.214 35.9863C124.61 35.5863 125.074 35.3254 125.605 35.2036C126.146 35.0851 126.742 35.1294 127.393 35.3366L126.936 36.7696L126.571 36.6531C125.016 36.1578 123.969 36.7537 123.432 38.4408L121.985 42.9839L120.597 42.542L123.259 34.1876L124.646 34.6295L124.214 35.9863ZM135.34 42.2843C135.256 42.5486 135.151 42.8232 135.027 43.1082L128.35 40.9812C128.138 41.8206 128.212 42.5551 128.571 43.1845C128.944 43.8069 129.496 44.2347 130.228 44.4678C130.828 44.6588 131.369 44.6802 131.853 44.5321C132.35 44.377 132.755 44.0916 133.066 43.6759L134.56 44.1518C134.081 44.8835 133.425 45.3966 132.592 45.6911C131.763 45.9754 130.85 45.959 129.854 45.6417C129.061 45.3892 128.406 44.9847 127.89 44.4282C127.383 43.875 127.055 43.2165 126.907 42.4528C126.762 41.6788 126.827 40.8599 127.102 39.996C127.377 39.1321 127.791 38.43 128.344 37.8896C128.896 37.3492 129.538 37.005 130.268 36.8569C131.011 36.7019 131.79 36.7539 132.603 37.0129C133.395 37.2654 134.042 37.6616 134.541 38.2014C135.041 38.7412 135.356 39.3678 135.487 40.0812C135.632 40.7877 135.583 41.5221 135.34 42.2843ZM133.999 41.5382C134.167 41.0097 134.195 40.5202 134.081 40.0697C133.97 39.609 133.742 39.2173 133.397 38.8947C133.065 38.5652 132.656 38.3227 132.168 38.1673C131.466 37.944 130.796 37.9765 130.155 38.2651C129.525 38.5569 129.048 39.0878 128.724 39.8579L133.999 41.5382ZM136.151 47.5973C135.887 47.5131 135.693 47.3504 135.568 47.1092C135.443 46.868 135.423 46.6152 135.507 46.351C135.591 46.0867 135.754 45.8923 135.995 45.7676C136.237 45.6429 136.489 45.6227 136.754 45.7069C137.008 45.7878 137.192 45.9473 137.306 46.1852C137.431 46.4265 137.451 46.6792 137.367 46.9434C137.283 47.2077 137.12 47.4022 136.879 47.5268C136.648 47.6547 136.406 47.6782 136.151 47.5973Z" fill="#F8F8FA"/>
</svg>
