<svg width="349" height="348" viewBox="0 0 349 348" fill="none" xmlns="http://www.w3.org/2000/svg">
<path d="M121.923 322.288L136.026 296.953L141.062 298.078L142.174 319.885L152.812 300.703L157.818 301.78L159.439 330.668L154.715 329.613L154.03 306.262L143.004 326.997L138.007 325.881L137.256 302.638L126.686 323.352L121.923 322.288ZM92.1598 307.918L105.088 283.306L109.125 285.427L103.47 296.192L115.05 302.275L120.704 291.51L124.741 293.63L111.813 318.241L107.776 316.121L113.32 305.568L101.74 299.486L96.1968 310.038L92.1598 307.918ZM66.6086 288.507L84.95 280.618L91.3331 272.817L94.8624 275.705L88.4793 283.506L84.4095 303.072L80.4778 299.855L84.131 285.22L70.5093 291.699L66.6086 288.507ZM64.2847 265.647C62.0338 267.175 59.6629 268.026 57.1718 268.202C54.6657 268.355 52.3098 267.875 50.104 266.761C47.8612 265.641 46.0137 264.01 44.5614 261.869C42.8995 259.42 42.0316 256.835 41.9577 254.113C41.8467 251.385 42.6026 248.842 44.2254 246.484L47.3022 251.019C46.4927 252.438 46.1495 253.88 46.2723 255.343C46.3952 256.807 46.9282 258.233 47.8714 259.624C48.9045 261.146 50.1673 262.271 51.6599 262.999C53.1525 263.726 54.7708 263.998 56.5148 263.813C58.2438 263.607 59.9579 262.928 61.6571 261.775C63.3562 260.622 64.6212 259.28 65.4519 257.75C66.2676 256.197 66.6243 254.586 66.522 252.915C66.3975 251.259 65.8188 249.67 64.7857 248.147C63.8425 246.757 62.7136 245.735 61.3992 245.08C60.0847 244.425 58.6185 244.211 57.0006 244.439L53.9238 239.904C56.7144 239.267 59.3568 239.505 61.851 240.616C64.3302 241.705 66.4008 243.475 68.0627 245.924C69.5299 248.087 70.3734 250.399 70.5931 252.86C70.7908 255.336 70.3553 257.71 69.2865 259.982C68.2028 262.232 66.5355 264.12 64.2847 265.647ZM24.3513 219.945L50.3013 209.973L51.937 214.23L40.5862 218.591L45.2779 230.801L56.6287 226.439L58.2644 230.696L32.3143 240.668L30.6787 236.411L41.8055 232.135L37.1137 219.926L25.9869 224.201L24.3513 219.945ZM47.3855 191.651C47.7379 194.213 47.4686 196.659 46.5778 198.989C45.6568 201.296 44.2136 203.231 42.2482 204.793C40.2526 206.333 37.9076 207.288 35.2129 207.658C32.5183 208.029 30.0157 207.741 27.705 206.793C25.3908 205.82 23.4921 204.344 22.009 202.368C20.4959 200.369 19.5631 198.088 19.2107 195.526C18.8546 192.937 19.137 190.489 20.058 188.182C20.9489 185.852 22.3789 183.919 24.348 182.383C26.3171 180.847 28.6489 179.894 31.3436 179.523C34.0382 179.153 36.554 179.439 38.8911 180.383C41.2017 181.33 43.1136 182.804 44.6267 184.803C46.1098 186.779 47.0294 189.062 47.3855 191.651ZM43.4624 192.19C43.2117 190.367 42.5788 188.799 41.5636 187.485C40.522 186.175 39.1806 185.229 37.5394 184.647C35.8681 184.042 34.0154 183.88 31.9812 184.16C29.947 184.439 28.2201 185.094 26.8005 186.124C25.3772 187.127 24.3542 188.398 23.7315 189.938C23.1087 191.477 22.9227 193.158 23.1734 194.981C23.424 196.803 24.057 198.372 25.0721 199.686C26.0873 201 27.4173 201.961 29.0622 202.569C30.7034 203.151 32.5411 203.302 34.5753 203.022C36.6095 202.742 38.3514 202.099 39.8011 201.092C41.2207 200.062 42.2551 198.776 42.9043 197.233C43.527 195.694 43.7131 194.013 43.4624 192.19ZM46.864 160.655C46.5994 163.228 45.7584 165.541 44.3409 167.594C42.8997 169.617 41.0393 171.155 38.7597 172.207C36.4562 173.23 33.9517 173.602 31.2459 173.324C28.5402 173.046 26.1771 172.173 24.1567 170.705C22.139 169.211 20.6438 167.328 19.6711 165.056C18.6746 162.756 18.3086 160.319 18.5733 157.746C18.8406 155.146 19.6949 152.835 21.1361 150.812C22.5536 148.759 24.4007 147.22 26.6776 146.194C28.9545 145.168 31.4458 144.795 34.1516 145.073C36.8573 145.351 39.2336 146.226 41.2806 147.696C43.301 149.164 44.8095 151.048 45.806 153.349C46.7787 155.62 47.1314 158.056 46.864 160.655ZM42.9248 160.25C43.1131 158.42 42.8697 156.746 42.1947 155.229C41.4931 153.709 40.414 152.473 38.9573 151.519C37.4768 150.535 35.7153 149.939 33.6727 149.728C31.6302 149.518 29.7973 149.745 28.1742 150.409C26.5538 151.047 25.2588 152.04 24.2891 153.388C23.3195 154.735 22.7405 156.325 22.5523 158.155C22.364 159.985 22.6074 161.659 23.2824 163.176C23.9574 164.693 25.0219 165.942 26.4759 166.922C27.9326 167.876 29.6822 168.458 31.7248 168.669C33.7673 168.879 35.6121 168.666 37.259 168.031C38.8821 167.367 40.1918 166.363 41.1879 165.018C42.1576 163.67 42.7366 162.081 42.9248 160.25ZM52.2389 133.631C51.6571 135.404 50.8294 136.901 49.7558 138.12C48.6569 139.332 47.4043 140.155 45.9981 140.592C44.5919 141.029 43.1287 140.998 41.6084 140.499L43.1295 135.863C44.3029 136.135 45.3859 135.999 46.3784 135.455C47.3792 134.885 48.1165 133.878 48.5902 132.434C49.0806 130.939 49.1083 129.657 48.6731 128.588C48.2126 127.511 47.4122 126.785 46.272 126.411C45.3852 126.12 44.5757 126.149 43.8437 126.499C43.1201 126.823 42.4774 127.327 41.9156 128.013C41.3622 128.674 40.6837 129.63 39.8801 130.882C38.8589 132.455 37.9415 133.712 37.128 134.652C36.2974 135.558 35.2634 136.229 34.0258 136.665C32.7883 137.101 31.346 137.049 29.6991 136.508C28.1788 136.01 26.9732 135.193 26.0823 134.059C25.1915 132.925 24.6664 131.574 24.5071 130.006C24.3479 128.438 24.5633 126.755 25.1534 124.956C25.9929 122.397 27.3248 120.518 29.149 119.321C30.9562 118.089 33.0038 117.751 35.2917 118.305L33.7207 123.094C32.733 122.854 31.7599 123.04 30.8014 123.652C29.843 124.263 29.1394 125.253 28.6905 126.622C28.2832 127.863 28.2675 128.981 28.6433 129.974C29.0191 130.967 29.8024 131.659 30.9933 132.05C31.8041 132.316 32.5545 132.295 33.2446 131.988C33.9176 131.648 34.5308 131.147 35.0842 130.487C35.6376 129.827 36.3078 128.896 37.0948 127.695C38.1497 126.104 39.0966 124.843 39.9354 123.912C40.7826 122.955 41.8376 122.262 43.1005 121.835C44.3463 121.373 45.8054 121.417 47.4778 121.966C48.8207 122.406 49.9671 123.189 50.9169 124.315C51.8751 125.415 52.493 126.782 52.7706 128.417C53.0313 130.018 52.854 131.756 52.2389 133.631ZM37.9898 104.155L45.1858 108.002L49.7122 99.536L52.9927 101.29L48.4664 109.756L55.9799 113.773L61.0721 104.249L64.3526 106.003L57.1105 119.548L32.5592 106.422L39.8014 92.8764L43.0819 94.6303L37.9898 104.155ZM74.7778 52.747L94.4121 72.4278L91.1839 75.6484L77.7365 62.1691L85.1805 81.6375L82.9434 83.8694L63.4644 76.4075L76.9117 89.8868L73.6835 93.1074L54.0492 73.4265L57.5323 69.9517L79.8385 78.4917L71.3231 56.1936L74.7778 52.747ZM86.72 43.2752L102.65 66.0585L98.9128 68.6714L82.9829 45.8882L86.72 43.2752ZM109.815 57.4092L121.262 51.4184L123.098 54.9269L106.867 63.4216L105.216 60.2675L107.224 36.3271L95.8126 42.2994L93.9764 38.7908L110.208 30.2961L111.859 33.4503L109.815 57.4092ZM141.502 48.8938L132.116 40.1459L128.79 41.1687L132.058 51.7976L127.7 53.1378L119.529 26.5656L128.705 23.7441C130.744 23.1171 132.575 22.9449 134.196 23.2275C135.843 23.5023 137.194 24.1329 138.251 25.1192C139.333 26.0978 140.101 27.3262 140.556 28.8046C141.089 30.5378 141.065 32.2749 140.484 34.0158C139.921 35.7233 138.673 37.1533 136.74 38.3058L146.702 47.2949L141.502 48.8938ZM127.72 37.6895L132.538 36.2082C134.169 35.7066 135.267 34.9225 135.832 33.8561C136.422 32.7818 136.506 31.5565 136.083 30.1801C135.659 28.8037 134.922 27.8585 133.872 27.3447C132.813 26.8053 131.455 26.7903 129.799 27.2998L124.981 28.7811L127.72 37.6895ZM168.099 39.1153L156.509 40.1948L155.044 46.0358L150.305 46.4772L157.64 17.8335L162.897 17.3438L175.396 44.1401L170.617 44.5853L168.099 39.1153ZM166.479 35.53L160.781 23.0849L157.439 36.3721L166.479 35.53ZM189.763 16.9366C192.47 17.1933 194.564 18.1418 196.042 19.782C197.547 21.4247 198.178 23.5336 197.933 26.1087C197.679 28.79 196.638 30.7271 194.811 31.92C192.984 33.1128 190.663 33.5759 187.849 33.3091L187.391 36.4399L183.449 36.0662L183.843 29.7953L185.157 29.9199C187.732 30.164 189.729 30.0051 191.148 29.4432C192.594 28.8839 193.409 27.6352 193.593 25.6972C193.726 24.2902 193.419 23.1495 192.672 22.275C191.951 21.4031 190.874 20.8992 189.44 20.7633C188.006 20.6274 186.842 20.9053 185.946 21.5972C185.05 22.2891 184.536 23.3252 184.406 24.7057L180.145 24.3018C180.296 22.7089 180.789 21.3226 181.624 20.1428C182.459 18.963 183.573 18.0909 184.966 17.5265C186.385 16.9646 187.984 16.768 189.763 16.9366ZM184.526 45.0479C183.703 44.9699 183.039 44.6257 182.535 44.0154C182.03 43.405 181.817 42.6883 181.895 41.8654C181.973 41.0424 182.317 40.3786 182.927 39.8739C183.538 39.3693 184.254 39.156 185.077 39.234C185.874 39.3095 186.524 39.6524 187.029 40.2628C187.534 40.8731 187.747 41.5898 187.669 42.4128C187.591 43.2357 187.247 43.8995 186.636 44.4042C186.026 44.9088 185.323 45.1234 184.526 45.0479ZM202.74 47.3561C201.932 47.1798 201.314 46.7585 200.887 46.0919C200.459 45.4254 200.333 44.6883 200.509 43.8807C200.686 43.073 201.107 42.4553 201.774 42.0276C202.44 41.5998 203.177 41.4741 203.985 41.6503C204.766 41.8209 205.371 42.2394 205.799 42.9059C206.227 43.5724 206.352 44.3095 206.176 45.1172C206 45.9248 205.579 46.5425 204.912 46.9703C204.245 47.398 203.521 47.5266 202.74 47.3561ZM254.5 38.1039L235.924 60.3679L231.186 58.3244L234.156 36.6918L220.13 53.5564L215.413 51.5655L219.203 22.881L223.647 24.7977L219.97 47.8678L234.666 29.5499L239.367 31.5775L235.775 54.5533L250.019 36.1713L254.5 38.1039ZM281.057 57.7203L263.798 79.5141L260.224 76.6831L267.773 67.1503L257.519 59.0299L249.97 68.5627L246.395 65.7318L263.654 43.938L267.228 46.7689L259.828 56.1136L270.082 64.234L277.483 54.8893L281.057 57.7203ZM302.575 81.4349L283.101 85.8405L275.401 92.3448L272.458 88.8611L280.159 82.3569L287.734 63.8638L291.012 67.7447L284.747 81.466L299.323 77.5845L302.575 81.4349ZM300.703 104.383C303.199 103.302 305.687 102.907 308.167 103.199C310.658 103.515 312.883 104.426 314.843 105.931C316.838 107.45 318.349 109.396 319.377 111.77C320.553 114.486 320.924 117.188 320.49 119.875C320.09 122.577 318.874 124.934 316.84 126.948L314.662 121.92C315.722 120.676 316.328 119.324 316.48 117.863C316.632 116.403 316.374 114.901 315.706 113.36C314.975 111.671 313.944 110.331 312.613 109.338C311.282 108.345 309.743 107.777 307.995 107.633C306.258 107.513 304.447 107.862 302.563 108.678C300.679 109.494 299.186 110.576 298.085 111.925C296.994 113.298 296.343 114.815 296.132 116.475C295.946 118.125 296.219 119.795 296.95 121.483C297.618 123.025 298.536 124.24 299.705 125.128C300.875 126.017 302.276 126.5 303.908 126.578L306.085 131.606C303.225 131.712 300.673 130.986 298.43 129.429C296.197 127.897 294.492 125.773 293.316 123.057C292.277 120.659 291.88 118.23 292.122 115.771C292.389 113.302 293.26 111.05 294.733 109.017C296.217 107.009 298.207 105.464 300.703 104.383ZM331.434 156.707L304.084 161.686L303.267 157.2L315.23 155.022L312.887 142.153L300.924 144.331L300.107 139.845L327.458 134.866L328.275 139.352L316.547 141.487L318.89 154.355L330.617 152.221L331.434 156.707ZM303.583 180.233C303.706 177.65 304.42 175.294 305.723 173.168C307.051 171.069 308.825 169.432 311.043 168.256C313.287 167.109 315.768 166.6 318.485 166.73C321.202 166.86 323.609 167.602 325.706 168.957C327.803 170.339 329.399 172.137 330.494 174.352C331.615 176.595 332.114 179.008 331.99 181.592C331.865 184.202 331.139 186.557 329.81 188.656C328.507 190.783 326.747 192.42 324.53 193.569C322.312 194.718 319.845 195.227 317.128 195.097C314.411 194.967 311.991 194.224 309.866 192.868C307.769 191.513 306.159 189.714 305.039 187.471C303.943 185.256 303.458 182.844 303.583 180.233ZM307.538 180.423C307.45 182.261 307.785 183.918 308.542 185.396C309.325 186.875 310.47 188.051 311.977 188.924C313.509 189.825 315.301 190.325 317.352 190.423C319.403 190.521 321.22 190.194 322.805 189.442C324.388 188.717 325.627 187.655 326.521 186.256C327.416 184.857 327.907 183.239 327.995 181.401C328.083 179.563 327.748 177.905 326.991 176.427C326.234 174.949 325.103 173.761 323.598 172.861C322.091 171.988 320.312 171.503 318.261 171.404C316.21 171.306 314.38 171.619 312.77 172.343C311.186 173.095 309.933 174.17 309.012 175.567C308.117 176.966 307.626 178.585 307.538 180.423ZM298.379 210.791C299.117 208.311 300.372 206.195 302.145 204.441C303.937 202.72 306.05 201.554 308.485 200.943C310.939 200.364 313.469 200.463 316.076 201.238C318.683 202.013 320.843 203.31 322.556 205.126C324.262 206.969 325.382 209.097 325.917 211.509C326.469 213.955 326.377 216.417 325.64 218.896C324.895 221.401 323.627 223.514 321.835 225.235C320.062 226.989 317.961 228.159 315.534 228.745C313.106 229.33 310.589 229.235 307.982 228.46C305.374 227.685 303.201 226.385 301.463 224.561C299.749 222.744 298.617 220.612 298.064 218.167C297.529 215.754 297.635 213.296 298.379 210.791ZM302.175 211.919C301.651 213.683 301.579 215.373 301.961 216.989C302.369 218.612 303.2 220.028 304.454 221.235C305.727 222.476 307.347 223.389 309.315 223.974C311.284 224.56 313.127 224.676 314.845 224.325C316.555 223.999 318.012 223.264 319.215 222.119C320.418 220.974 321.281 219.52 321.806 217.756C322.33 215.993 322.401 214.303 322.019 212.687C321.637 211.071 320.823 209.647 319.576 208.413C318.322 207.206 316.71 206.309 314.742 205.724C312.774 205.139 310.922 205.005 309.186 205.324C307.468 205.675 305.994 206.42 304.766 207.557C303.563 208.701 302.7 210.156 302.175 211.919ZM288.087 236.348C288.988 234.713 290.079 233.396 291.36 232.396C292.664 231.41 294.048 230.832 295.511 230.664C296.973 230.495 298.405 230.797 299.807 231.569L297.453 235.843C296.35 235.358 295.261 235.291 294.184 235.642C293.095 236.016 292.184 236.869 291.451 238.2C290.692 239.579 290.427 240.833 290.657 241.964C290.909 243.108 291.561 243.969 292.612 244.548C293.43 244.999 294.231 245.12 295.015 244.913C295.786 244.728 296.511 244.352 297.19 243.782C297.857 243.235 298.7 242.422 299.722 241.34C301.018 239.984 302.152 238.919 303.126 238.146C304.11 237.409 305.25 236.942 306.547 236.743C307.844 236.544 309.252 236.862 310.77 237.699C312.171 238.47 313.205 239.496 313.87 240.776C314.535 242.056 314.801 243.48 314.667 245.051C314.532 246.621 314.009 248.235 313.095 249.893C311.796 252.252 310.139 253.851 308.124 254.69C306.12 255.565 304.045 255.518 301.9 254.55L304.331 250.135C305.257 250.554 306.248 250.552 307.303 250.128C308.358 249.705 309.233 248.862 309.928 247.601C310.559 246.456 310.781 245.361 310.596 244.316C310.411 243.27 309.769 242.445 308.672 241.84C307.924 241.428 307.183 241.309 306.448 241.483C305.724 241.693 305.028 242.071 304.362 242.617C303.696 243.164 302.865 243.954 301.869 244.989C300.537 246.356 299.373 247.419 298.376 248.179C297.366 248.963 296.201 249.447 294.881 249.634C293.571 249.856 292.145 249.543 290.603 248.693C289.365 248.012 288.384 247.03 287.659 245.748C286.922 244.489 286.568 243.031 286.598 241.373C286.639 239.751 287.135 238.076 288.087 236.348ZM296.602 267.97L290.25 262.849L284.224 270.322L281.328 267.987L287.354 260.514L280.721 255.166L273.942 263.574L271.046 261.239L280.687 249.281L302.36 266.755L292.72 278.713L289.824 276.378L296.602 267.97ZM251.02 311.695L235.347 288.734L239.113 286.163L249.847 301.889L246.117 281.382L248.727 279.601L266.498 290.523L255.764 274.797L259.53 272.226L275.203 295.187L271.14 297.961L250.788 285.458L255.05 308.943L251.02 311.695ZM237.474 318.815L226.07 293.461L230.228 291.591L241.632 316.944L237.474 318.815ZM217.421 300.627L205.06 304.386L203.908 300.597L221.435 295.267L222.471 298.673L216.048 321.823L228.371 318.076L229.523 321.865L211.996 327.195L210.96 323.789L217.421 300.627ZM184.704 303.107L192.302 313.446L195.761 313.059L194.523 302.008L199.055 301.5L202.149 329.128L192.608 330.196C190.488 330.433 188.658 330.263 187.117 329.684C185.55 329.108 184.339 328.237 183.484 327.072C182.602 325.91 182.075 324.56 181.903 323.023C181.702 321.221 182.048 319.518 182.941 317.916C183.812 316.342 185.304 315.169 187.418 314.396L179.298 303.713L184.704 303.107ZM196.166 316.676L191.157 317.237C189.461 317.427 188.236 317.993 187.483 318.936C186.704 319.882 186.394 321.071 186.554 322.502C186.715 323.933 187.263 324.999 188.2 325.699C189.14 326.425 190.472 326.692 192.194 326.499L197.203 325.938L196.166 316.676Z" fill="url(#paint0_linear_2230_8547)"/>
<defs>
<linearGradient id="paint0_linear_2230_8547" x1="24.8796" y1="195.667" x2="311.202" y2="182.876" gradientUnits="userSpaceOnUse">
<stop stop-color="#F8AA0B"/>
<stop offset="0.39564" stop-color="#EE5C1F"/>
<stop offset="1" stop-color="#1F014B"/>
</linearGradient>
</defs>
</svg>
