<svg width="349" height="348" viewBox="0 0 349 348" fill="none" xmlns="http://www.w3.org/2000/svg">
<path d="M120.97 322.288L135.073 296.953L140.109 298.078L141.221 319.885L151.859 300.703L156.865 301.78L158.485 330.668L153.762 329.613L153.076 306.262L142.051 326.997L137.054 325.881L136.303 302.638L125.733 323.352L120.97 322.288ZM91.2067 307.918L104.135 283.306L108.171 285.427L102.517 296.192L114.096 302.275L119.751 291.51L123.788 293.63L110.86 318.241L106.823 316.121L112.366 305.568L100.787 299.486L95.2437 310.038L91.2067 307.918ZM65.6555 288.507L83.9969 280.618L90.38 272.817L93.9092 275.705L87.5261 283.506L83.4564 303.072L79.5247 299.855L83.1779 285.22L69.5562 291.699L65.6555 288.507ZM63.3315 265.647C61.0807 267.175 58.7098 268.026 56.2186 268.202C53.7126 268.355 51.3567 267.875 49.1509 266.761C46.9081 265.641 45.0606 264.01 43.6083 261.869C41.9464 259.42 41.0785 256.835 41.0046 254.113C40.8936 251.385 41.6495 248.842 43.2723 246.484L46.3491 251.019C45.5396 252.438 45.1963 253.88 45.3192 255.343C45.442 256.807 45.9751 258.233 46.9183 259.624C47.9514 261.146 49.2142 262.271 50.7068 262.999C52.1993 263.726 53.8176 263.998 55.5617 263.813C57.2907 263.607 59.0048 262.928 60.7039 261.775C62.4031 260.622 63.668 259.28 64.4987 257.75C65.3145 256.197 65.6712 254.586 65.5688 252.915C65.4444 251.259 64.8657 249.67 63.8326 248.147C62.8894 246.757 61.7605 245.735 60.446 245.08C59.1316 244.425 57.6654 244.211 56.0475 244.439L52.9707 239.904C55.7613 239.267 58.4037 239.505 60.8979 240.616C63.3771 241.705 65.4476 243.475 67.1095 245.924C68.5768 248.087 69.4203 250.399 69.64 252.86C69.8377 255.336 69.4021 257.71 68.3334 259.982C67.2496 262.232 65.5824 264.12 63.3315 265.647ZM23.3982 219.945L49.3482 209.973L50.9838 214.23L39.633 218.591L44.3248 230.801L55.6756 226.439L57.3112 230.696L31.3612 240.668L29.7256 236.411L40.8523 232.135L36.1606 219.926L25.0338 224.201L23.3982 219.945ZM46.4323 191.651C46.7848 194.213 46.5155 196.659 45.6246 198.989C44.7037 201.296 43.2605 203.231 41.295 204.793C39.2995 206.333 36.9544 207.288 34.2598 207.658C31.5652 208.029 29.0625 207.741 26.7519 206.793C24.4377 205.82 22.539 204.344 21.0559 202.368C19.5427 200.369 18.61 198.088 18.2575 195.526C17.9015 192.937 18.1839 190.489 19.1049 188.182C19.9957 185.852 21.4257 183.919 23.3948 182.383C25.3639 180.847 27.6958 179.894 30.3904 179.523C33.0851 179.153 35.6009 179.439 37.9379 180.383C40.2486 181.33 42.1604 182.804 43.6736 184.803C45.1567 186.779 46.0763 189.062 46.4323 191.651ZM42.5093 192.19C42.2586 190.367 41.6256 188.799 40.6105 187.485C39.5689 186.175 38.2275 185.229 36.5863 184.647C34.915 184.042 33.0622 183.88 31.0281 184.16C28.9939 184.439 27.267 185.094 25.8474 186.124C24.4241 187.127 23.4011 188.398 22.7783 189.938C22.1556 191.477 21.9695 193.158 22.2202 194.981C22.4709 196.803 23.1038 198.372 24.119 199.686C25.1341 201 26.4642 201.961 28.109 202.569C29.7503 203.151 31.588 203.302 33.6222 203.022C35.6564 202.742 37.3983 202.099 38.848 201.092C40.2676 200.062 41.302 198.776 41.9511 197.233C42.5739 195.694 42.7599 194.013 42.5093 192.19ZM45.9109 160.655C45.6463 163.228 44.8052 165.541 43.3878 167.594C41.9466 169.617 40.0862 171.155 37.8065 172.207C35.5031 173.23 32.9985 173.602 30.2928 173.324C27.5871 173.046 25.224 172.173 23.2036 170.705C21.1859 169.211 19.6907 167.328 18.7179 165.056C17.7214 162.756 17.3555 160.319 17.6201 157.746C17.8875 155.146 18.7418 152.835 20.183 150.812C21.6004 148.759 23.4476 147.22 25.7245 146.194C28.0014 145.168 30.4927 144.795 33.1984 145.073C35.9042 145.351 38.2805 146.226 40.3275 147.696C42.3479 149.164 43.8564 151.048 44.8529 153.349C45.8256 155.62 46.1783 158.056 45.9109 160.655ZM41.9717 160.25C42.1599 158.42 41.9166 156.746 41.2416 155.229C40.54 153.709 39.4609 152.473 38.0042 151.519C36.5237 150.535 34.7622 149.939 32.7196 149.728C30.6771 149.518 28.8442 149.745 27.2211 150.409C25.6007 151.047 24.3057 152.04 23.336 153.388C22.3664 154.735 21.7874 156.325 21.5991 158.155C21.4109 159.985 21.6543 161.659 22.3293 163.176C23.0043 164.693 24.0688 165.942 25.5227 166.922C26.9794 167.876 28.7291 168.458 30.7716 168.669C32.8142 168.879 34.6589 168.666 36.3059 168.031C37.929 167.367 39.2386 166.363 40.2348 165.018C41.2045 163.67 41.7834 162.081 41.9717 160.25ZM51.2858 133.631C50.704 135.404 49.8763 136.901 48.8027 138.12C47.7038 139.332 46.4512 140.155 45.045 140.592C43.6388 141.029 42.1756 140.998 40.6553 140.499L42.1764 135.863C43.3498 136.135 44.4328 135.999 45.4253 135.455C46.4261 134.885 47.1633 133.878 47.6371 132.434C48.1275 130.939 48.1551 129.657 47.72 128.588C47.2594 127.511 46.4591 126.785 45.3189 126.411C44.432 126.12 43.6226 126.149 42.8906 126.499C42.1669 126.823 41.5242 127.327 40.9625 128.013C40.4091 128.674 39.7306 129.63 38.927 130.882C37.9057 132.455 36.9883 133.712 36.1748 134.652C35.3443 135.558 34.3103 136.229 33.0727 136.665C31.8352 137.101 30.3929 137.049 28.7459 136.508C27.2256 136.01 26.0201 135.193 25.1292 134.059C24.2383 132.925 23.7133 131.574 23.554 130.006C23.3947 128.438 23.6102 126.755 24.2003 124.956C25.0398 122.397 26.3717 120.518 28.1959 119.321C30.0031 118.089 32.0506 117.751 34.3386 118.305L32.7676 123.094C31.7798 122.854 30.8067 123.04 29.8483 123.652C28.8899 124.263 28.1862 125.253 27.7374 126.622C27.3301 127.863 27.3144 128.981 27.6902 129.974C28.0659 130.967 28.8493 131.659 30.0402 132.05C30.851 132.316 31.6014 132.295 32.2914 131.988C32.9645 131.648 33.5777 131.147 34.1311 130.487C34.6845 129.827 35.3547 128.896 36.1416 127.695C37.1966 126.104 38.1435 124.843 38.9823 123.912C39.8295 122.955 40.8845 122.262 42.1474 121.835C43.3932 121.373 44.8523 121.417 46.5246 121.966C47.8675 122.406 49.0139 123.189 49.9638 124.315C50.9219 125.415 51.5399 126.782 51.8175 128.417C52.0781 130.018 51.9009 131.756 51.2858 133.631ZM37.0367 104.155L44.2327 108.002L48.7591 99.536L52.0396 101.29L47.5133 109.756L55.0268 113.773L60.1189 104.249L63.3995 106.003L56.1573 119.548L31.6061 106.422L38.8482 92.8764L42.1288 94.6303L37.0367 104.155ZM73.8247 52.747L93.459 72.4278L90.2307 75.6484L76.7834 62.1691L84.2274 81.6375L81.9903 83.8694L62.5112 76.4075L75.9586 89.8868L72.7304 93.1074L53.0961 73.4265L56.5792 69.9517L78.8854 78.4917L70.3699 56.1936L73.8247 52.747ZM85.7669 43.2752L101.697 66.0585L97.9597 68.6714L82.0298 45.8882L85.7669 43.2752ZM108.862 57.4092L120.309 51.4184L122.145 54.9269L105.914 63.4216L104.263 60.2675L106.271 36.3271L94.8595 42.2994L93.0233 38.7908L109.255 30.2961L110.906 33.4503L108.862 57.4092ZM140.549 48.8938L131.163 40.1459L127.837 41.1687L131.105 51.7976L126.747 53.1378L118.576 26.5656L127.752 23.7441C129.791 23.1171 131.621 22.9449 133.243 23.2275C134.89 23.5023 136.241 24.1329 137.298 25.1192C138.38 26.0978 139.148 27.3262 139.603 28.8046C140.136 30.5378 140.112 32.2749 139.531 34.0158C138.968 35.7233 137.72 37.1533 135.787 38.3058L145.749 47.2949L140.549 48.8938ZM126.767 37.6895L131.585 36.2082C133.216 35.7066 134.314 34.9225 134.879 33.8561C135.469 32.7818 135.553 31.5565 135.129 30.1801C134.706 28.8037 133.969 27.8585 132.918 27.3447C131.86 26.8053 130.502 26.7903 128.845 27.2998L124.028 28.7811L126.767 37.6895ZM167.146 39.1153L155.556 40.1948L154.091 46.0358L149.352 46.4772L156.687 17.8335L161.944 17.3438L174.443 44.1401L169.664 44.5853L167.146 39.1153ZM165.526 35.53L159.828 23.0849L156.485 36.3721L165.526 35.53ZM188.81 16.9366C191.517 17.1933 193.611 18.1418 195.089 19.782C196.594 21.4247 197.224 23.5336 196.98 26.1087C196.726 28.79 195.685 30.7271 193.858 31.92C192.031 33.1128 189.71 33.5759 186.896 33.3091L186.438 36.4399L182.496 36.0662L182.89 29.7953L184.204 29.9199C186.779 30.164 188.776 30.0051 190.195 29.4432C191.641 28.8839 192.456 27.6352 192.64 25.6972C192.773 24.2902 192.466 23.1495 191.719 22.275C190.998 21.4031 189.921 20.8992 188.487 20.7633C187.053 20.6274 185.889 20.9053 184.993 21.5972C184.097 22.2891 183.583 23.3252 183.452 24.7057L179.191 24.3018C179.342 22.7089 179.836 21.3226 180.671 20.1428C181.506 18.963 182.62 18.0909 184.012 17.5265C185.432 16.9646 187.031 16.768 188.81 16.9366ZM183.573 45.0479C182.75 44.9699 182.086 44.6257 181.582 44.0154C181.077 43.405 180.864 42.6883 180.942 41.8654C181.02 41.0424 181.364 40.3786 181.974 39.8739C182.585 39.3693 183.301 39.156 184.124 39.234C184.921 39.3095 185.571 39.6524 186.076 40.2628C186.581 40.8731 186.794 41.5898 186.716 42.4128C186.638 43.2357 186.294 43.8995 185.683 44.4042C185.073 44.9088 184.37 45.1234 183.573 45.0479ZM201.787 47.3561C200.979 47.1798 200.361 46.7585 199.934 46.0919C199.506 45.4254 199.38 44.6883 199.556 43.8807C199.733 43.073 200.154 42.4553 200.82 42.0276C201.487 41.5998 202.224 41.4741 203.032 41.6503C203.813 41.8209 204.418 42.2394 204.846 42.9059C205.273 43.5724 205.399 44.3095 205.223 45.1172C205.047 45.9248 204.625 46.5425 203.959 46.9703C203.292 47.398 202.568 47.5266 201.787 47.3561ZM253.547 38.1039L234.971 60.3679L230.233 58.3244L233.203 36.6918L219.177 53.5564L214.46 51.5655L218.249 22.881L222.694 24.7977L219.017 47.8678L233.713 29.5499L238.414 31.5775L234.822 54.5533L249.066 36.1713L253.547 38.1039ZM280.104 57.7203L262.845 79.5141L259.27 76.6831L266.82 67.1503L256.566 59.0299L249.016 68.5627L245.442 65.7318L262.701 43.938L266.275 46.7689L258.875 56.1136L269.129 64.234L276.529 54.8893L280.104 57.7203ZM301.622 81.4349L282.148 85.8405L274.448 92.3448L271.505 88.8611L279.206 82.3569L286.781 63.8638L290.059 67.7447L283.794 81.466L298.37 77.5845L301.622 81.4349ZM299.75 104.383C302.246 103.302 304.734 102.907 307.214 103.199C309.705 103.515 311.93 104.426 313.89 105.931C315.884 107.45 317.396 109.396 318.424 111.77C319.6 114.486 319.971 117.188 319.537 119.875C319.137 122.577 317.921 124.934 315.887 126.948L313.709 121.92C314.769 120.676 315.375 119.324 315.527 117.863C315.679 116.403 315.421 114.901 314.753 113.36C314.022 111.671 312.991 110.331 311.66 109.338C310.329 108.345 308.79 107.777 307.042 107.633C305.305 107.513 303.494 107.862 301.61 108.678C299.726 109.494 298.233 110.576 297.132 111.925C296.041 113.298 295.39 114.815 295.179 116.475C294.993 118.125 295.266 119.795 295.997 121.483C296.664 123.025 297.583 124.24 298.752 125.128C299.922 126.017 301.322 126.5 302.954 126.578L305.132 131.606C302.272 131.712 299.72 130.986 297.477 129.429C295.244 127.897 293.539 125.773 292.363 123.057C291.324 120.659 290.926 118.23 291.169 115.771C291.436 113.302 292.307 111.05 293.78 109.017C295.264 107.009 297.254 105.464 299.75 104.383ZM330.481 156.707L303.13 161.686L302.314 157.2L314.277 155.022L311.934 142.153L299.971 144.331L299.154 139.845L326.505 134.866L327.321 139.352L315.594 141.487L317.937 154.355L329.664 152.221L330.481 156.707ZM302.63 180.233C302.753 177.65 303.466 175.294 304.769 173.168C306.098 171.069 307.871 169.432 310.09 168.256C312.334 167.109 314.815 166.6 317.531 166.73C320.248 166.86 322.656 167.602 324.753 168.957C326.85 170.339 328.446 172.137 329.541 174.352C330.662 176.595 331.161 179.008 331.037 181.592C330.912 184.202 330.186 186.557 328.857 188.656C327.554 190.783 325.794 192.42 323.577 193.569C321.359 194.718 318.892 195.227 316.175 195.097C313.458 194.967 311.038 194.224 308.913 192.868C306.816 191.513 305.206 189.714 304.086 187.471C302.99 185.256 302.505 182.844 302.63 180.233ZM306.585 180.423C306.497 182.261 306.832 183.918 307.589 185.396C308.372 186.875 309.517 188.051 311.024 188.924C312.556 189.825 314.348 190.325 316.399 190.423C318.45 190.521 320.267 190.194 321.852 189.442C323.435 188.717 324.674 187.655 325.568 186.256C326.463 184.857 326.954 183.239 327.042 181.401C327.13 179.563 326.795 177.905 326.038 176.427C325.281 174.949 324.15 173.761 322.645 172.861C321.138 171.988 319.359 171.503 317.308 171.404C315.257 171.306 313.427 171.619 311.817 172.343C310.232 173.095 308.98 174.17 308.059 175.567C307.164 176.966 306.673 178.585 306.585 180.423ZM297.426 210.791C298.163 208.311 299.419 206.195 301.192 204.441C302.984 202.72 305.097 201.554 307.532 200.943C309.985 200.364 312.516 200.463 315.123 201.238C317.73 202.013 319.89 203.31 321.603 205.126C323.309 206.969 324.429 209.097 324.964 211.509C325.516 213.955 325.424 216.417 324.687 218.896C323.942 221.401 322.674 223.514 320.882 225.235C319.109 226.989 317.008 228.159 314.581 228.745C312.153 229.33 309.636 229.235 307.028 228.46C304.421 227.685 302.248 226.385 300.51 224.561C298.796 222.744 297.663 220.612 297.111 218.167C296.576 215.754 296.681 213.296 297.426 210.791ZM301.222 211.919C300.698 213.683 300.626 215.373 301.008 216.989C301.416 218.612 302.247 220.028 303.501 221.235C304.774 222.476 306.394 223.389 308.362 223.974C310.33 224.56 312.174 224.676 313.892 224.325C315.602 223.999 317.059 223.264 318.262 222.119C319.465 220.974 320.328 219.52 320.853 217.756C321.377 215.993 321.448 214.303 321.066 212.687C320.684 211.071 319.87 209.647 318.623 208.413C317.368 207.206 315.757 206.309 313.789 205.724C311.821 205.139 309.969 205.005 308.233 205.324C306.514 205.675 305.041 206.42 303.813 207.557C302.61 208.701 301.746 210.156 301.222 211.919ZM287.134 236.348C288.035 234.713 289.126 233.396 290.407 232.396C291.711 231.41 293.095 230.832 294.557 230.664C296.02 230.495 297.452 230.797 298.854 231.569L296.499 235.843C295.397 235.358 294.308 235.291 293.231 235.642C292.142 236.016 291.231 236.869 290.498 238.2C289.739 239.579 289.474 240.833 289.703 241.964C289.956 243.108 290.608 243.969 291.659 244.548C292.477 244.999 293.278 245.12 294.062 244.913C294.833 244.728 295.558 244.352 296.237 243.782C296.903 243.235 297.747 242.422 298.769 241.34C300.064 239.984 301.199 238.919 302.172 238.146C303.157 237.409 304.297 236.942 305.594 236.743C306.891 236.544 308.299 236.862 309.817 237.699C311.218 238.47 312.252 239.496 312.917 240.776C313.582 242.056 313.848 243.48 313.713 245.051C313.579 246.621 313.055 248.235 312.142 249.893C310.843 252.252 309.186 253.851 307.171 254.69C305.167 255.565 303.092 255.518 300.946 254.55L303.378 250.135C304.304 250.554 305.295 250.552 306.35 250.128C307.405 249.705 308.28 248.862 308.975 247.601C309.605 246.456 309.828 245.361 309.643 244.316C309.458 243.27 308.816 242.445 307.718 241.84C306.971 241.428 306.23 241.309 305.495 241.483C304.77 241.693 304.075 242.071 303.409 242.617C302.743 243.164 301.911 243.954 300.915 244.989C299.584 246.356 298.42 247.419 297.423 248.179C296.413 248.963 295.248 249.447 293.927 249.634C292.618 249.856 291.192 249.543 289.65 248.693C288.412 248.012 287.431 247.03 286.706 245.748C285.969 244.489 285.615 243.031 285.645 241.373C285.686 239.751 286.182 238.076 287.134 236.348ZM295.649 267.97L289.297 262.849L283.271 270.322L280.375 267.987L286.401 260.514L279.768 255.166L272.989 263.574L270.093 261.239L279.734 249.281L301.407 266.755L291.767 278.713L288.871 276.378L295.649 267.97ZM250.067 311.695L234.394 288.734L238.16 286.163L248.894 301.889L245.164 281.382L247.774 279.601L265.545 290.523L254.811 274.797L258.577 272.226L274.25 295.187L270.186 297.961L249.835 285.458L254.097 308.943L250.067 311.695ZM236.521 318.815L225.117 293.461L229.275 291.591L240.679 316.944L236.521 318.815ZM216.468 300.627L204.107 304.386L202.955 300.597L220.482 295.267L221.518 298.673L215.095 321.823L227.418 318.076L228.57 321.865L211.043 327.195L210.007 323.789L216.468 300.627ZM183.751 303.107L191.349 313.446L194.807 313.059L193.57 302.008L198.102 301.5L201.195 329.128L191.655 330.196C189.535 330.433 187.705 330.263 186.164 329.684C184.597 329.108 183.386 328.237 182.531 327.072C181.649 325.91 181.122 324.56 180.95 323.023C180.748 321.221 181.094 319.518 181.988 317.916C182.859 316.342 184.351 315.169 186.464 314.396L178.345 303.713L183.751 303.107ZM195.213 316.676L190.204 317.237C188.508 317.427 187.283 317.993 186.53 318.936C185.751 319.882 185.441 321.071 185.601 322.502C185.761 323.933 186.31 324.999 187.247 325.699C188.187 326.425 189.518 326.692 191.241 326.499L196.25 325.938L195.213 316.676Z" fill="url(#paint0_linear_2230_8547)"/>
<defs>
<linearGradient id="paint0_linear_2230_8547" x1="23.9265" y1="195.667" x2="310.249" y2="182.876" gradientUnits="userSpaceOnUse">
<stop stop-color="#F8AA0B"/>
<stop offset="0.957348" stop-color="#EE5C1F"/>
</linearGradient>
</defs>
</svg>
